<?xml version="1.0" encoding="utf-8" standalone="no"?>
<!DOCTYPE svg PUBLIC "-//W3C//DTD SVG 1.1//EN"
  "http://www.w3.org/Graphics/SVG/1.1/DTD/svg11.dtd">
<svg xmlns:xlink="http://www.w3.org/1999/xlink" width="1002.72pt" height="640.8pt" viewBox="0 0 1002.72 640.8" xmlns="http://www.w3.org/2000/svg" version="1.1">
 <metadata>
  <rdf:RDF xmlns:dc="http://purl.org/dc/elements/1.1/" xmlns:cc="http://creativecommons.org/ns#" xmlns:rdf="http://www.w3.org/1999/02/22-rdf-syntax-ns#">
   <cc:Work>
    <dc:type rdf:resource="http://purl.org/dc/dcmitype/StillImage"/>
    <dc:date>2026-06-18T21:37:18.813387</dc:date>
    <dc:format>image/svg+xml</dc:format>
    <dc:creator>
     <cc:Agent>
      <dc:title>Matplotlib v3.10.8, https://matplotlib.org/</dc:title>
     </cc:Agent>
    </dc:creator>
   </cc:Work>
  </rdf:RDF>
 </metadata>
 <defs>
  <style type="text/css">*{stroke-linejoin: round; stroke-linecap: butt}</style>
 </defs>
 <g id="figure_1">
  <g id="patch_1">
   <path d="M 0 640.8 
L 1002.72 640.8 
L 1002.72 0 
L 0 0 
z
" style="fill: #ffffff"/>
  </g>
  <g id="axes_1">
   <g id="patch_2">
    <path d="M 177.72 605.76 
L 845.88 605.76 
L 845.88 38.52 
L 177.72 38.52 
L 177.72 605.76 
z
" clip-path="url(#p5f4a204b52)" style="fill: none; stroke: #1f2a33; stroke-width: 1.9; stroke-linejoin: miter"/>
   </g>
   <g id="patch_3">
    <path d="M 26.604653 53.832 
Q 43.74378 53.832 58.758643 53.832 
" clip-path="url(#p5f4a204b52)" style="fill: none; stroke-dasharray: 11.4,5.7; stroke-dashoffset: 0; stroke: #7c2d2d; stroke-width: 1.9; stroke-linecap: round"/>
    <path d="M 52.358643 50.632 
L 58.758643 53.832 
L 52.358643 57.032 
L 52.358643 50.632 
z
" clip-path="url(#p5f4a204b52)" style="fill: none; stroke-dasharray: 11.4,5.7; stroke-dashoffset: 0; stroke: #7c2d2d; stroke-width: 1.9; stroke-linecap: round"/>
   </g>
   <g id="patch_4">
    <path d="M 70.536 83.064 
L 55.92 75.408 
L 55.92 90.72 
z
" clip-path="url(#p5f4a204b52)" style="fill: #ffffff; stroke: #1f2a33; stroke-width: 1.8; stroke-linejoin: miter"/>
   </g>
   <g id="text_1">
    <!-- Lumière Library System -->
    <g style="fill: #1f2a33" transform="translate(357.078281 59.4) scale(0.23 -0.23)">
     <defs>
      <path id="DejaVuSans-Bold-4c" d="M 588 4666 
L 1791 4666 
L 1791 909 
L 3903 909 
L 3903 0 
L 588 0 
L 588 4666 
z
" transform="scale(0.015625)"/>
      <path id="DejaVuSans-Bold-75" d="M 500 1363 
L 500 3500 
L 1625 3500 
L 1625 3150 
Q 1625 2866 1622 2436 
Q 1619 2006 1619 1863 
Q 1619 1441 1641 1255 
Q 1663 1069 1716 984 
Q 1784 875 1895 815 
Q 2006 756 2150 756 
Q 2500 756 2700 1025 
Q 2900 1294 2900 1772 
L 2900 3500 
L 4019 3500 
L 4019 0 
L 2900 0 
L 2900 506 
Q 2647 200 2364 54 
Q 2081 -91 1741 -91 
Q 1134 -91 817 281 
Q 500 653 500 1363 
z
" transform="scale(0.015625)"/>
      <path id="DejaVuSans-Bold-6d" d="M 3781 2919 
Q 3994 3244 4286 3414 
Q 4578 3584 4928 3584 
Q 5531 3584 5847 3212 
Q 6163 2841 6163 2131 
L 6163 0 
L 5038 0 
L 5038 1825 
Q 5041 1866 5042 1909 
Q 5044 1953 5044 2034 
Q 5044 2406 4934 2573 
Q 4825 2741 4581 2741 
Q 4263 2741 4089 2478 
Q 3916 2216 3909 1719 
L 3909 0 
L 2784 0 
L 2784 1825 
Q 2784 2406 2684 2573 
Q 2584 2741 2328 2741 
Q 2006 2741 1831 2477 
Q 1656 2213 1656 1722 
L 1656 0 
L 531 0 
L 531 3500 
L 1656 3500 
L 1656 2988 
Q 1863 3284 2130 3434 
Q 2397 3584 2719 3584 
Q 3081 3584 3359 3409 
Q 3638 3234 3781 2919 
z
" transform="scale(0.015625)"/>
      <path id="DejaVuSans-Bold-69" d="M 538 3500 
L 1656 3500 
L 1656 0 
L 538 0 
L 538 3500 
z
M 538 4863 
L 1656 4863 
L 1656 3950 
L 538 3950 
L 538 4863 
z
" transform="scale(0.015625)"/>
      <path id="DejaVuSans-Bold-e8" d="M 4031 1759 
L 4031 1441 
L 1416 1441 
Q 1456 1047 1700 850 
Q 1944 653 2381 653 
Q 2734 653 3104 758 
Q 3475 863 3866 1075 
L 3866 213 
Q 3469 63 3072 -14 
Q 2675 -91 2278 -91 
Q 1328 -91 801 392 
Q 275 875 275 1747 
Q 275 2603 792 3093 
Q 1309 3584 2216 3584 
Q 3041 3584 3536 3087 
Q 4031 2591 4031 1759 
z
M 2881 2131 
Q 2881 2450 2695 2645 
Q 2509 2841 2209 2841 
Q 1884 2841 1681 2658 
Q 1478 2475 1428 2131 
L 2881 2131 
z
M 1858 5119 
L 2739 3944 
L 2127 3944 
L 974 5119 
L 1858 5119 
z
" transform="scale(0.015625)"/>
      <path id="DejaVuSans-Bold-72" d="M 3138 2547 
Q 2991 2616 2845 2648 
Q 2700 2681 2553 2681 
Q 2122 2681 1889 2404 
Q 1656 2128 1656 1613 
L 1656 0 
L 538 0 
L 538 3500 
L 1656 3500 
L 1656 2925 
Q 1872 3269 2151 3426 
Q 2431 3584 2822 3584 
Q 2878 3584 2943 3579 
Q 3009 3575 3134 3559 
L 3138 2547 
z
" transform="scale(0.015625)"/>
      <path id="DejaVuSans-Bold-65" d="M 4031 1759 
L 4031 1441 
L 1416 1441 
Q 1456 1047 1700 850 
Q 1944 653 2381 653 
Q 2734 653 3104 758 
Q 3475 863 3866 1075 
L 3866 213 
Q 3469 63 3072 -14 
Q 2675 -91 2278 -91 
Q 1328 -91 801 392 
Q 275 875 275 1747 
Q 275 2603 792 3093 
Q 1309 3584 2216 3584 
Q 3041 3584 3536 3087 
Q 4031 2591 4031 1759 
z
M 2881 2131 
Q 2881 2450 2695 2645 
Q 2509 2841 2209 2841 
Q 1884 2841 1681 2658 
Q 1478 2475 1428 2131 
L 2881 2131 
z
" transform="scale(0.015625)"/>
      <path id="DejaVuSans-Bold-20" transform="scale(0.015625)"/>
      <path id="DejaVuSans-Bold-62" d="M 2400 722 
Q 2759 722 2948 984 
Q 3138 1247 3138 1747 
Q 3138 2247 2948 2509 
Q 2759 2772 2400 2772 
Q 2041 2772 1848 2508 
Q 1656 2244 1656 1747 
Q 1656 1250 1848 986 
Q 2041 722 2400 722 
z
M 1656 2988 
Q 1888 3294 2169 3439 
Q 2450 3584 2816 3584 
Q 3463 3584 3878 3070 
Q 4294 2556 4294 1747 
Q 4294 938 3878 423 
Q 3463 -91 2816 -91 
Q 2450 -91 2169 54 
Q 1888 200 1656 506 
L 1656 0 
L 538 0 
L 538 4863 
L 1656 4863 
L 1656 2988 
z
" transform="scale(0.015625)"/>
      <path id="DejaVuSans-Bold-61" d="M 2106 1575 
Q 1756 1575 1579 1456 
Q 1403 1338 1403 1106 
Q 1403 894 1545 773 
Q 1688 653 1941 653 
Q 2256 653 2472 879 
Q 2688 1106 2688 1447 
L 2688 1575 
L 2106 1575 
z
M 3816 1997 
L 3816 0 
L 2688 0 
L 2688 519 
Q 2463 200 2181 54 
Q 1900 -91 1497 -91 
Q 953 -91 614 226 
Q 275 544 275 1050 
Q 275 1666 698 1953 
Q 1122 2241 2028 2241 
L 2688 2241 
L 2688 2328 
Q 2688 2594 2478 2717 
Q 2269 2841 1825 2841 
Q 1466 2841 1156 2769 
Q 847 2697 581 2553 
L 581 3406 
Q 941 3494 1303 3539 
Q 1666 3584 2028 3584 
Q 2975 3584 3395 3211 
Q 3816 2838 3816 1997 
z
" transform="scale(0.015625)"/>
      <path id="DejaVuSans-Bold-79" d="M 78 3500 
L 1197 3500 
L 2138 1125 
L 2938 3500 
L 4056 3500 
L 2584 -331 
Q 2363 -916 2067 -1148 
Q 1772 -1381 1288 -1381 
L 641 -1381 
L 641 -647 
L 991 -647 
Q 1275 -647 1404 -556 
Q 1534 -466 1606 -231 
L 1638 -134 
L 78 3500 
z
" transform="scale(0.015625)"/>
      <path id="DejaVuSans-Bold-53" d="M 3834 4519 
L 3834 3531 
Q 3450 3703 3084 3790 
Q 2719 3878 2394 3878 
Q 1963 3878 1756 3759 
Q 1550 3641 1550 3391 
Q 1550 3203 1689 3098 
Q 1828 2994 2194 2919 
L 2706 2816 
Q 3484 2659 3812 2340 
Q 4141 2022 4141 1434 
Q 4141 663 3683 286 
Q 3225 -91 2284 -91 
Q 1841 -91 1394 -6 
Q 947 78 500 244 
L 500 1259 
Q 947 1022 1364 901 
Q 1781 781 2169 781 
Q 2563 781 2772 912 
Q 2981 1044 2981 1288 
Q 2981 1506 2839 1625 
Q 2697 1744 2272 1838 
L 1806 1941 
Q 1106 2091 782 2419 
Q 459 2747 459 3303 
Q 459 4000 909 4375 
Q 1359 4750 2203 4750 
Q 2588 4750 2994 4692 
Q 3400 4634 3834 4519 
z
" transform="scale(0.015625)"/>
      <path id="DejaVuSans-Bold-73" d="M 3272 3391 
L 3272 2541 
Q 2913 2691 2578 2766 
Q 2244 2841 1947 2841 
Q 1628 2841 1473 2761 
Q 1319 2681 1319 2516 
Q 1319 2381 1436 2309 
Q 1553 2238 1856 2203 
L 2053 2175 
Q 2913 2066 3209 1816 
Q 3506 1566 3506 1031 
Q 3506 472 3093 190 
Q 2681 -91 1863 -91 
Q 1516 -91 1145 -36 
Q 775 19 384 128 
L 384 978 
Q 719 816 1070 734 
Q 1422 653 1784 653 
Q 2113 653 2278 743 
Q 2444 834 2444 1013 
Q 2444 1163 2330 1236 
Q 2216 1309 1875 1350 
L 1678 1375 
Q 931 1469 631 1722 
Q 331 1975 331 2491 
Q 331 3047 712 3315 
Q 1094 3584 1881 3584 
Q 2191 3584 2531 3537 
Q 2872 3491 3272 3391 
z
" transform="scale(0.015625)"/>
      <path id="DejaVuSans-Bold-74" d="M 1759 4494 
L 1759 3500 
L 2913 3500 
L 2913 2700 
L 1759 2700 
L 1759 1216 
Q 1759 972 1856 886 
Q 1953 800 2241 800 
L 2816 800 
L 2816 0 
L 1856 0 
Q 1194 0 917 276 
Q 641 553 641 1216 
L 641 2700 
L 84 2700 
L 84 3500 
L 641 3500 
L 641 4494 
L 1759 4494 
z
" transform="scale(0.015625)"/>
     </defs>
     <use xlink:href="#DejaVuSans-Bold-4c"/>
     <use xlink:href="#DejaVuSans-Bold-75" transform="translate(63.720703 0)"/>
     <use xlink:href="#DejaVuSans-Bold-6d" transform="translate(134.912109 0)"/>
     <use xlink:href="#DejaVuSans-Bold-69" transform="translate(239.111328 0)"/>
     <use xlink:href="#DejaVuSans-Bold-e8" transform="translate(273.388672 0)"/>
     <use xlink:href="#DejaVuSans-Bold-72" transform="translate(341.210938 0)"/>
     <use xlink:href="#DejaVuSans-Bold-65" transform="translate(390.527344 0)"/>
     <use xlink:href="#DejaVuSans-Bold-20" transform="translate(458.349609 0)"/>
     <use xlink:href="#DejaVuSans-Bold-4c" transform="translate(493.164062 0)"/>
     <use xlink:href="#DejaVuSans-Bold-69" transform="translate(556.884766 0)"/>
     <use xlink:href="#DejaVuSans-Bold-62" transform="translate(591.162109 0)"/>
     <use xlink:href="#DejaVuSans-Bold-72" transform="translate(662.744141 0)"/>
     <use xlink:href="#DejaVuSans-Bold-61" transform="translate(712.060547 0)"/>
     <use xlink:href="#DejaVuSans-Bold-72" transform="translate(779.541016 0)"/>
     <use xlink:href="#DejaVuSans-Bold-79" transform="translate(828.857422 0)"/>
     <use xlink:href="#DejaVuSans-Bold-20" transform="translate(894.042969 0)"/>
     <use xlink:href="#DejaVuSans-Bold-53" transform="translate(928.857422 0)"/>
     <use xlink:href="#DejaVuSans-Bold-79" transform="translate(1000.878906 0)"/>
     <use xlink:href="#DejaVuSans-Bold-73" transform="translate(1066.064453 0)"/>
     <use xlink:href="#DejaVuSans-Bold-74" transform="translate(1125.585938 0)"/>
     <use xlink:href="#DejaVuSans-Bold-65" transform="translate(1173.388672 0)"/>
     <use xlink:href="#DejaVuSans-Bold-6d" transform="translate(1241.210938 0)"/>
    </g>
   </g>
   <g id="line2d_1">
    <path d="M 87.24 390 
L 87.24 252.192 
" clip-path="url(#p5f4a204b52)" style="fill: none; stroke: #1f2a33; stroke-width: 2; stroke-linecap: square"/>
   </g>
   <g id="line2d_2">
    <path d="M 918.96 396.96 
L 918.96 266.112 
" clip-path="url(#p5f4a204b52)" style="fill: none; stroke: #1f2a33; stroke-width: 2; stroke-linecap: square"/>
   </g>
   <g id="line2d_3">
    <path d="M 114.814908 171.497718 
L 219.042756 134.824956 
" clip-path="url(#p5f4a204b52)" style="fill: none; stroke: #33424c; stroke-width: 1.7; stroke-linecap: square"/>
   </g>
   <g id="line2d_4">
    <path d="M 116.451971 180.118075 
L 193.884433 177.250206 
" clip-path="url(#p5f4a204b52)" style="fill: none; stroke: #33424c; stroke-width: 1.7; stroke-linecap: square"/>
   </g>
   <g id="line2d_5">
    <path d="M 115.267586 189.50447 
L 212.747508 218.38741 
" clip-path="url(#p5f4a204b52)" style="fill: none; stroke: #33424c; stroke-width: 1.7; stroke-linecap: square"/>
   </g>
   <g id="line2d_6">
    <path d="M 115.9833 430.122833 
L 203.743516 446.374725 
" clip-path="url(#p5f4a204b52)" style="fill: none; stroke: #33424c; stroke-width: 1.7; stroke-linecap: square"/>
   </g>
   <g id="line2d_7">
    <path d="M 109.358621 405.687794 
L 413.15961 143.180143 
" clip-path="url(#p5f4a204b52)" style="fill: none; stroke: #33424c; stroke-width: 1.7; stroke-linecap: square"/>
   </g>
   <g id="line2d_8">
    <path d="M 111.526158 408.530632 
L 410.890575 207.985537 
" clip-path="url(#p5f4a204b52)" style="fill: none; stroke: #33424c; stroke-width: 1.7; stroke-linecap: square"/>
   </g>
   <g id="line2d_9">
    <path d="M 115.582945 417.64547 
L 383.5011 350.015645 
" clip-path="url(#p5f4a204b52)" style="fill: none; stroke: #33424c; stroke-width: 1.7; stroke-linecap: square"/>
   </g>
   <g id="line2d_10">
    <path d="M 116.035597 429.83224 
L 379.202379 475.822552 
" clip-path="url(#p5f4a204b52)" style="fill: none; stroke: #33424c; stroke-width: 1.7; stroke-linecap: square"/>
   </g>
   <g id="line2d_11">
    <path d="M 114.577913 435.151249 
L 395.112415 541.37305 
" clip-path="url(#p5f4a204b52)" style="fill: none; stroke: #33424c; stroke-width: 1.7; stroke-linecap: square"/>
   </g>
   <g id="line2d_12">
    <path d="M 890.497147 201.781519 
L 821.275468 217.982337 
" clip-path="url(#p5f4a204b52)" style="fill: none; stroke: #33424c; stroke-width: 1.7; stroke-linecap: square"/>
   </g>
   <g id="line2d_13">
    <path d="M 889.728 431.76 
L 835.44 431.76 
" clip-path="url(#p5f4a204b52)" style="fill: none; stroke: #33424c; stroke-width: 1.7; stroke-linecap: square"/>
   </g>
   <g id="line2d_14">
    <path d="M 24.6 24.6 
L 62.88 24.6 
" clip-path="url(#p5f4a204b52)" style="fill: none; stroke: #33424c; stroke-width: 1.7; stroke-linecap: square"/>
   </g>
   <g id="line2d_15">
    <path d="M 24.6 83.064 
L 55.92 83.064 
" clip-path="url(#p5f4a204b52)" style="fill: none; stroke: #1f2a33; stroke-width: 2; stroke-linecap: square"/>
   </g>
   <g id="patch_5">
    <path d="M 87.24 231.312 
L 75.408 252.192 
L 99.072 252.192 
z
" clip-path="url(#p5f4a204b52)" style="fill: #ffffff; stroke: #1f2a33; stroke-width: 2; stroke-linejoin: miter"/>
   </g>
   <g id="patch_6">
    <path d="M 918.96 245.232 
L 907.128 266.112 
L 930.792 266.112 
z
" clip-path="url(#p5f4a204b52)" style="fill: #ffffff; stroke: #1f2a33; stroke-width: 2; stroke-linejoin: miter"/>
   </g>
   <g id="text_2">
    <!-- «generalization» -->
    <g style="fill: #1f2a33" transform="translate(48.239375 344.83125) rotate(-90) scale(0.1 -0.1)">
     <defs>
      <path id="DejaVuSans-Oblique-ab" d="M 2163 3309 
L 2041 2681 
L 934 1838 
L 1722 1006 
L 1606 441 
L 397 1747 
L 447 2003 
L 2163 3309 
z
M 3553 3309 
L 3431 2681 
L 2322 1838 
L 3109 1006 
L 2994 441 
L 1784 1747 
L 1838 2003 
L 3553 3309 
z
" transform="scale(0.015625)"/>
      <path id="DejaVuSans-Oblique-67" d="M 3816 3500 
L 3219 434 
Q 3047 -456 2561 -893 
Q 2075 -1331 1253 -1331 
Q 950 -1331 690 -1286 
Q 431 -1241 206 -1147 
L 313 -588 
Q 525 -725 762 -790 
Q 1000 -856 1269 -856 
Q 1816 -856 2167 -557 
Q 2519 -259 2631 300 
L 2681 563 
Q 2441 288 2122 144 
Q 1803 0 1434 0 
Q 903 0 598 351 
Q 294 703 294 1319 
Q 294 1803 478 2267 
Q 663 2731 997 3091 
Q 1219 3328 1514 3456 
Q 1809 3584 2131 3584 
Q 2484 3584 2746 3420 
Q 3009 3256 3138 2956 
L 3238 3500 
L 3816 3500 
z
M 2950 2216 
Q 2950 2641 2750 2872 
Q 2550 3103 2181 3103 
Q 1953 3103 1747 3012 
Q 1541 2922 1394 2759 
Q 1156 2491 1023 2127 
Q 891 1763 891 1375 
Q 891 944 1092 712 
Q 1294 481 1672 481 
Q 2219 481 2584 976 
Q 2950 1472 2950 2216 
z
" transform="scale(0.015625)"/>
      <path id="DejaVuSans-Oblique-65" d="M 3078 2063 
Q 3088 2113 3092 2166 
Q 3097 2219 3097 2272 
Q 3097 2653 2873 2875 
Q 2650 3097 2266 3097 
Q 1838 3097 1509 2826 
Q 1181 2556 1013 2059 
L 3078 2063 
z
M 3578 1613 
L 903 1613 
Q 884 1494 878 1425 
Q 872 1356 872 1306 
Q 872 872 1139 634 
Q 1406 397 1894 397 
Q 2269 397 2603 481 
Q 2938 566 3225 728 
L 3116 159 
Q 2806 34 2476 -28 
Q 2147 -91 1806 -91 
Q 1078 -91 686 257 
Q 294 606 294 1247 
Q 294 1794 489 2264 
Q 684 2734 1063 3103 
Q 1306 3334 1642 3459 
Q 1978 3584 2356 3584 
Q 2950 3584 3301 3228 
Q 3653 2872 3653 2272 
Q 3653 2128 3634 1964 
Q 3616 1800 3578 1613 
z
" transform="scale(0.015625)"/>
      <path id="DejaVuSans-Oblique-6e" d="M 3566 2113 
L 3156 0 
L 2578 0 
L 2988 2091 
Q 3016 2238 3031 2350 
Q 3047 2463 3047 2528 
Q 3047 2791 2881 2937 
Q 2716 3084 2419 3084 
Q 1956 3084 1622 2776 
Q 1288 2469 1184 1941 
L 800 0 
L 225 0 
L 903 3500 
L 1478 3500 
L 1363 2950 
Q 1603 3253 1940 3418 
Q 2278 3584 2650 3584 
Q 3113 3584 3367 3334 
Q 3622 3084 3622 2631 
Q 3622 2519 3608 2391 
Q 3594 2263 3566 2113 
z
" transform="scale(0.015625)"/>
      <path id="DejaVuSans-Oblique-72" d="M 2853 2969 
Q 2766 3016 2653 3041 
Q 2541 3066 2413 3066 
Q 1953 3066 1609 2717 
Q 1266 2369 1153 1784 
L 800 0 
L 225 0 
L 909 3500 
L 1484 3500 
L 1375 2956 
Q 1603 3259 1920 3421 
Q 2238 3584 2597 3584 
Q 2691 3584 2781 3573 
Q 2872 3563 2963 3538 
L 2853 2969 
z
" transform="scale(0.015625)"/>
      <path id="DejaVuSans-Oblique-61" d="M 3438 1997 
L 3047 0 
L 2472 0 
L 2578 531 
Q 2325 219 2001 64 
Q 1678 -91 1281 -91 
Q 834 -91 548 182 
Q 263 456 263 884 
Q 263 1497 752 1853 
Q 1241 2209 2100 2209 
L 2900 2209 
L 2931 2363 
Q 2938 2388 2941 2417 
Q 2944 2447 2944 2509 
Q 2944 2788 2717 2942 
Q 2491 3097 2081 3097 
Q 1800 3097 1504 3025 
Q 1209 2953 897 2809 
L 997 3341 
Q 1322 3463 1633 3523 
Q 1944 3584 2234 3584 
Q 2853 3584 3176 3315 
Q 3500 3047 3500 2534 
Q 3500 2431 3484 2292 
Q 3469 2153 3438 1997 
z
M 2816 1759 
L 2241 1759 
Q 1534 1759 1195 1570 
Q 856 1381 856 984 
Q 856 709 1029 553 
Q 1203 397 1509 397 
Q 1978 397 2328 733 
Q 2678 1069 2791 1631 
L 2816 1759 
z
" transform="scale(0.015625)"/>
      <path id="DejaVuSans-Oblique-6c" d="M 1172 4863 
L 1747 4863 
L 800 0 
L 225 0 
L 1172 4863 
z
" transform="scale(0.015625)"/>
      <path id="DejaVuSans-Oblique-69" d="M 1172 4863 
L 1747 4863 
L 1606 4134 
L 1031 4134 
L 1172 4863 
z
M 909 3500 
L 1484 3500 
L 800 0 
L 225 0 
L 909 3500 
z
" transform="scale(0.015625)"/>
      <path id="DejaVuSans-Oblique-7a" d="M 744 3500 
L 3475 3500 
L 3372 2975 
L 738 459 
L 2913 459 
L 2822 0 
L -19 0 
L 84 525 
L 2719 3041 
L 653 3041 
L 744 3500 
z
" transform="scale(0.015625)"/>
      <path id="DejaVuSans-Oblique-74" d="M 2706 3500 
L 2619 3053 
L 1472 3053 
L 1100 1153 
Q 1081 1047 1072 975 
Q 1063 903 1063 863 
Q 1063 663 1183 572 
Q 1303 481 1569 481 
L 2150 481 
L 2053 0 
L 1503 0 
Q 991 0 739 200 
Q 488 400 488 806 
Q 488 878 497 964 
Q 506 1050 525 1153 
L 897 3053 
L 409 3053 
L 500 3500 
L 978 3500 
L 1172 4494 
L 1747 4494 
L 1556 3500 
L 2706 3500 
z
" transform="scale(0.015625)"/>
      <path id="DejaVuSans-Oblique-6f" d="M 1625 -91 
Q 1009 -91 651 289 
Q 294 669 294 1325 
Q 294 1706 417 2101 
Q 541 2497 738 2766 
Q 1047 3184 1428 3384 
Q 1809 3584 2291 3584 
Q 2888 3584 3255 3212 
Q 3622 2841 3622 2241 
Q 3622 1825 3500 1412 
Q 3378 1000 3181 728 
Q 2875 309 2494 109 
Q 2113 -91 1625 -91 
z
M 891 1344 
Q 891 869 1089 633 
Q 1288 397 1691 397 
Q 2269 397 2648 901 
Q 3028 1406 3028 2181 
Q 3028 2634 2825 2865 
Q 2622 3097 2228 3097 
Q 1903 3097 1650 2945 
Q 1397 2794 1197 2484 
Q 1050 2253 970 1956 
Q 891 1659 891 1344 
z
" transform="scale(0.015625)"/>
      <path id="DejaVuSans-Oblique-bb" d="M 1778 441 
L 1900 1069 
L 3009 1913 
L 2222 2747 
L 2344 3309 
L 3547 2003 
L 3500 1747 
L 1778 441 
z
M 397 441 
L 519 1069 
L 1619 1913 
L 838 2747 
L 953 3309 
L 2156 2003 
L 2113 1747 
L 397 441 
z
" transform="scale(0.015625)"/>
     </defs>
     <use xlink:href="#DejaVuSans-Oblique-ab"/>
     <use xlink:href="#DejaVuSans-Oblique-67" transform="translate(61.71875 0)"/>
     <use xlink:href="#DejaVuSans-Oblique-65" transform="translate(125.195312 0)"/>
     <use xlink:href="#DejaVuSans-Oblique-6e" transform="translate(186.71875 0)"/>
     <use xlink:href="#DejaVuSans-Oblique-65" transform="translate(250.097656 0)"/>
     <use xlink:href="#DejaVuSans-Oblique-72" transform="translate(311.621094 0)"/>
     <use xlink:href="#DejaVuSans-Oblique-61" transform="translate(352.734375 0)"/>
     <use xlink:href="#DejaVuSans-Oblique-6c" transform="translate(414.013672 0)"/>
     <use xlink:href="#DejaVuSans-Oblique-69" transform="translate(441.796875 0)"/>
     <use xlink:href="#DejaVuSans-Oblique-7a" transform="translate(469.580078 0)"/>
     <use xlink:href="#DejaVuSans-Oblique-61" transform="translate(522.070312 0)"/>
     <use xlink:href="#DejaVuSans-Oblique-74" transform="translate(583.349609 0)"/>
     <use xlink:href="#DejaVuSans-Oblique-69" transform="translate(622.558594 0)"/>
     <use xlink:href="#DejaVuSans-Oblique-6f" transform="translate(650.341797 0)"/>
     <use xlink:href="#DejaVuSans-Oblique-6e" transform="translate(711.523438 0)"/>
     <use xlink:href="#DejaVuSans-Oblique-bb" transform="translate(774.902344 0)"/>
    </g>
   </g>
   <g id="text_3">
    <!-- «generalization» -->
    <g style="fill: #1f2a33" transform="translate(963.479375 355.27125) rotate(-90) scale(0.1 -0.1)">
     <use xlink:href="#DejaVuSans-Oblique-ab"/>
     <use xlink:href="#DejaVuSans-Oblique-67" transform="translate(61.71875 0)"/>
     <use xlink:href="#DejaVuSans-Oblique-65" transform="translate(125.195312 0)"/>
     <use xlink:href="#DejaVuSans-Oblique-6e" transform="translate(186.71875 0)"/>
     <use xlink:href="#DejaVuSans-Oblique-65" transform="translate(250.097656 0)"/>
     <use xlink:href="#DejaVuSans-Oblique-72" transform="translate(311.621094 0)"/>
     <use xlink:href="#DejaVuSans-Oblique-61" transform="translate(352.734375 0)"/>
     <use xlink:href="#DejaVuSans-Oblique-6c" transform="translate(414.013672 0)"/>
     <use xlink:href="#DejaVuSans-Oblique-69" transform="translate(441.796875 0)"/>
     <use xlink:href="#DejaVuSans-Oblique-7a" transform="translate(469.580078 0)"/>
     <use xlink:href="#DejaVuSans-Oblique-61" transform="translate(522.070312 0)"/>
     <use xlink:href="#DejaVuSans-Oblique-74" transform="translate(583.349609 0)"/>
     <use xlink:href="#DejaVuSans-Oblique-69" transform="translate(622.558594 0)"/>
     <use xlink:href="#DejaVuSans-Oblique-6f" transform="translate(650.341797 0)"/>
     <use xlink:href="#DejaVuSans-Oblique-6e" transform="translate(711.523438 0)"/>
     <use xlink:href="#DejaVuSans-Oblique-bb" transform="translate(774.902344 0)"/>
    </g>
   </g>
   <g id="patch_7">
    <path d="M 275.16 282.816 
Q 275.16 273.42 275.16 266.148265 
" clip-path="url(#p5f4a204b52)" style="fill: none; stroke-dasharray: 11.4,5.7; stroke-dashoffset: 0; stroke: #7c2d2d; stroke-width: 1.9; stroke-linecap: round"/>
    <path d="M 271.16 274.148265 
L 275.16 266.148265 
L 279.16 274.148265 
L 271.16 274.148265 
z
" clip-path="url(#p5f4a204b52)" style="fill: none; stroke-dasharray: 11.4,5.7; stroke-dashoffset: 0; stroke: #7c2d2d; stroke-width: 1.9; stroke-linecap: round"/>
   </g>
   <g id="patch_8">
    <path d="M 275.16 355.896 
Q 229.224 309.96 273.657918 265.526082 
" clip-path="url(#p5f4a204b52)" style="fill: none; stroke-dasharray: 11.4,5.7; stroke-dashoffset: 0; stroke: #7c2d2d; stroke-width: 1.9; stroke-linecap: round"/>
    <path d="M 265.172637 268.354509 
L 273.657918 265.526082 
L 270.829491 274.011363 
L 265.172637 268.354509 
z
" clip-path="url(#p5f4a204b52)" style="fill: none; stroke-dasharray: 11.4,5.7; stroke-dashoffset: 0; stroke: #7c2d2d; stroke-width: 1.9; stroke-linecap: round"/>
   </g>
   <g id="patch_9">
    <path d="M 445.68 227.136 
Q 445.68 219.48 445.68 213.948265 
" clip-path="url(#p5f4a204b52)" style="fill: none; stroke-dasharray: 11.4,5.7; stroke-dashoffset: 0; stroke: #7c2d2d; stroke-width: 1.9; stroke-linecap: round"/>
    <path d="M 441.68 221.948265 
L 445.68 213.948265 
L 449.68 221.948265 
L 441.68 221.948265 
z
" clip-path="url(#p5f4a204b52)" style="fill: none; stroke-dasharray: 11.4,5.7; stroke-dashoffset: 0; stroke: #7c2d2d; stroke-width: 1.9; stroke-linecap: round"/>
   </g>
   <g id="patch_10">
    <path d="M 445.68 366.336 
Q 445.68 375.036 445.68 381.611735 
" clip-path="url(#p5f4a204b52)" style="fill: none; stroke-dasharray: 11.4,5.7; stroke-dashoffset: 0; stroke: #7c2d2d; stroke-width: 1.9; stroke-linecap: round"/>
    <path d="M 449.68 373.611735 
L 445.68 381.611735 
L 441.68 373.611735 
L 449.68 373.611735 
z
" clip-path="url(#p5f4a204b52)" style="fill: none; stroke-dasharray: 11.4,5.7; stroke-dashoffset: 0; stroke: #7c2d2d; stroke-width: 1.9; stroke-linecap: round"/>
   </g>
   <g id="patch_11">
    <path d="M 634.564483 148.265886 
Q 677.624894 178.603903 718.948756 207.718442 
" clip-path="url(#p5f4a204b52)" style="fill: none; stroke-dasharray: 11.4,5.7; stroke-dashoffset: 0; stroke: #7c2d2d; stroke-width: 1.9; stroke-linecap: round"/>
    <path d="M 714.712711 199.840884 
L 718.948756 207.718442 
L 710.105083 206.380743 
L 714.712711 199.840884 
z
" clip-path="url(#p5f4a204b52)" style="fill: none; stroke-dasharray: 11.4,5.7; stroke-dashoffset: 0; stroke: #7c2d2d; stroke-width: 1.9; stroke-linecap: round"/>
   </g>
   <g id="patch_12">
    <path d="M 656.313788 213.132366 
Q 671.587695 216.256574 684.780429 218.955088 
" clip-path="url(#p5f4a204b52)" style="fill: none; stroke-dasharray: 11.4,5.7; stroke-dashoffset: 0; stroke: #7c2d2d; stroke-width: 1.9; stroke-linecap: round"/>
    <path d="M 677.744294 213.433058 
L 684.780429 218.955088 
L 676.141124 221.270778 
L 677.744294 213.433058 
z
" clip-path="url(#p5f4a204b52)" style="fill: none; stroke-dasharray: 11.4,5.7; stroke-dashoffset: 0; stroke: #7c2d2d; stroke-width: 1.9; stroke-linecap: round"/>
   </g>
   <g id="patch_13">
    <path d="M 652.019618 263.944204 
Q 673.535116 257.587352 693.013407 251.832403 
" clip-path="url(#p5f4a204b52)" style="fill: none; stroke-dasharray: 11.4,5.7; stroke-dashoffset: 0; stroke: #7c2d2d; stroke-width: 1.9; stroke-linecap: round"/>
    <path d="M 684.20788 250.263101 
L 693.013407 251.832403 
L 686.474649 257.935243 
L 684.20788 250.263101 
z
" clip-path="url(#p5f4a204b52)" style="fill: none; stroke-dasharray: 11.4,5.7; stroke-dashoffset: 0; stroke: #7c2d2d; stroke-width: 1.9; stroke-linecap: round"/>
   </g>
   <g id="text_4">
    <!-- association -->
    <g style="fill: #1f2a33" transform="translate(70.536 27.497344) scale(0.105 -0.105)">
     <defs>
      <path id="DejaVuSans-61" d="M 2194 1759 
Q 1497 1759 1228 1600 
Q 959 1441 959 1056 
Q 959 750 1161 570 
Q 1363 391 1709 391 
Q 2188 391 2477 730 
Q 2766 1069 2766 1631 
L 2766 1759 
L 2194 1759 
z
M 3341 1997 
L 3341 0 
L 2766 0 
L 2766 531 
Q 2569 213 2275 61 
Q 1981 -91 1556 -91 
Q 1019 -91 701 211 
Q 384 513 384 1019 
Q 384 1609 779 1909 
Q 1175 2209 1959 2209 
L 2766 2209 
L 2766 2266 
Q 2766 2663 2505 2880 
Q 2244 3097 1772 3097 
Q 1472 3097 1187 3025 
Q 903 2953 641 2809 
L 641 3341 
Q 956 3463 1253 3523 
Q 1550 3584 1831 3584 
Q 2591 3584 2966 3190 
Q 3341 2797 3341 1997 
z
" transform="scale(0.015625)"/>
      <path id="DejaVuSans-73" d="M 2834 3397 
L 2834 2853 
Q 2591 2978 2328 3040 
Q 2066 3103 1784 3103 
Q 1356 3103 1142 2972 
Q 928 2841 928 2578 
Q 928 2378 1081 2264 
Q 1234 2150 1697 2047 
L 1894 2003 
Q 2506 1872 2764 1633 
Q 3022 1394 3022 966 
Q 3022 478 2636 193 
Q 2250 -91 1575 -91 
Q 1294 -91 989 -36 
Q 684 19 347 128 
L 347 722 
Q 666 556 975 473 
Q 1284 391 1588 391 
Q 1994 391 2212 530 
Q 2431 669 2431 922 
Q 2431 1156 2273 1281 
Q 2116 1406 1581 1522 
L 1381 1569 
Q 847 1681 609 1914 
Q 372 2147 372 2553 
Q 372 3047 722 3315 
Q 1072 3584 1716 3584 
Q 2034 3584 2315 3537 
Q 2597 3491 2834 3397 
z
" transform="scale(0.015625)"/>
      <path id="DejaVuSans-6f" d="M 1959 3097 
Q 1497 3097 1228 2736 
Q 959 2375 959 1747 
Q 959 1119 1226 758 
Q 1494 397 1959 397 
Q 2419 397 2687 759 
Q 2956 1122 2956 1747 
Q 2956 2369 2687 2733 
Q 2419 3097 1959 3097 
z
M 1959 3584 
Q 2709 3584 3137 3096 
Q 3566 2609 3566 1747 
Q 3566 888 3137 398 
Q 2709 -91 1959 -91 
Q 1206 -91 779 398 
Q 353 888 353 1747 
Q 353 2609 779 3096 
Q 1206 3584 1959 3584 
z
" transform="scale(0.015625)"/>
      <path id="DejaVuSans-63" d="M 3122 3366 
L 3122 2828 
Q 2878 2963 2633 3030 
Q 2388 3097 2138 3097 
Q 1578 3097 1268 2742 
Q 959 2388 959 1747 
Q 959 1106 1268 751 
Q 1578 397 2138 397 
Q 2388 397 2633 464 
Q 2878 531 3122 666 
L 3122 134 
Q 2881 22 2623 -34 
Q 2366 -91 2075 -91 
Q 1284 -91 818 406 
Q 353 903 353 1747 
Q 353 2603 823 3093 
Q 1294 3584 2113 3584 
Q 2378 3584 2631 3529 
Q 2884 3475 3122 3366 
z
" transform="scale(0.015625)"/>
      <path id="DejaVuSans-69" d="M 603 3500 
L 1178 3500 
L 1178 0 
L 603 0 
L 603 3500 
z
M 603 4863 
L 1178 4863 
L 1178 4134 
L 603 4134 
L 603 4863 
z
" transform="scale(0.015625)"/>
      <path id="DejaVuSans-74" d="M 1172 4494 
L 1172 3500 
L 2356 3500 
L 2356 3053 
L 1172 3053 
L 1172 1153 
Q 1172 725 1289 603 
Q 1406 481 1766 481 
L 2356 481 
L 2356 0 
L 1766 0 
Q 1100 0 847 248 
Q 594 497 594 1153 
L 594 3053 
L 172 3053 
L 172 3500 
L 594 3500 
L 594 4494 
L 1172 4494 
z
" transform="scale(0.015625)"/>
      <path id="DejaVuSans-6e" d="M 3513 2113 
L 3513 0 
L 2938 0 
L 2938 2094 
Q 2938 2591 2744 2837 
Q 2550 3084 2163 3084 
Q 1697 3084 1428 2787 
Q 1159 2491 1159 1978 
L 1159 0 
L 581 0 
L 581 3500 
L 1159 3500 
L 1159 2956 
Q 1366 3272 1645 3428 
Q 1925 3584 2291 3584 
Q 2894 3584 3203 3211 
Q 3513 2838 3513 2113 
z
" transform="scale(0.015625)"/>
     </defs>
     <use xlink:href="#DejaVuSans-61"/>
     <use xlink:href="#DejaVuSans-73" transform="translate(61.279297 0)"/>
     <use xlink:href="#DejaVuSans-73" transform="translate(113.378906 0)"/>
     <use xlink:href="#DejaVuSans-6f" transform="translate(165.478516 0)"/>
     <use xlink:href="#DejaVuSans-63" transform="translate(226.660156 0)"/>
     <use xlink:href="#DejaVuSans-69" transform="translate(281.640625 0)"/>
     <use xlink:href="#DejaVuSans-61" transform="translate(309.423828 0)"/>
     <use xlink:href="#DejaVuSans-74" transform="translate(370.703125 0)"/>
     <use xlink:href="#DejaVuSans-69" transform="translate(409.912109 0)"/>
     <use xlink:href="#DejaVuSans-6f" transform="translate(437.695312 0)"/>
     <use xlink:href="#DejaVuSans-6e" transform="translate(498.876953 0)"/>
    </g>
   </g>
   <g id="text_5">
    <!-- include / extend -->
    <g style="fill: #1f2a33" transform="translate(70.536 56.729344) scale(0.105 -0.105)">
     <defs>
      <path id="DejaVuSans-6c" d="M 603 4863 
L 1178 4863 
L 1178 0 
L 603 0 
L 603 4863 
z
" transform="scale(0.015625)"/>
      <path id="DejaVuSans-75" d="M 544 1381 
L 544 3500 
L 1119 3500 
L 1119 1403 
Q 1119 906 1312 657 
Q 1506 409 1894 409 
Q 2359 409 2629 706 
Q 2900 1003 2900 1516 
L 2900 3500 
L 3475 3500 
L 3475 0 
L 2900 0 
L 2900 538 
Q 2691 219 2414 64 
Q 2138 -91 1772 -91 
Q 1169 -91 856 284 
Q 544 659 544 1381 
z
M 1991 3584 
L 1991 3584 
z
" transform="scale(0.015625)"/>
      <path id="DejaVuSans-64" d="M 2906 2969 
L 2906 4863 
L 3481 4863 
L 3481 0 
L 2906 0 
L 2906 525 
Q 2725 213 2448 61 
Q 2172 -91 1784 -91 
Q 1150 -91 751 415 
Q 353 922 353 1747 
Q 353 2572 751 3078 
Q 1150 3584 1784 3584 
Q 2172 3584 2448 3432 
Q 2725 3281 2906 2969 
z
M 947 1747 
Q 947 1113 1208 752 
Q 1469 391 1925 391 
Q 2381 391 2643 752 
Q 2906 1113 2906 1747 
Q 2906 2381 2643 2742 
Q 2381 3103 1925 3103 
Q 1469 3103 1208 2742 
Q 947 2381 947 1747 
z
" transform="scale(0.015625)"/>
      <path id="DejaVuSans-65" d="M 3597 1894 
L 3597 1613 
L 953 1613 
Q 991 1019 1311 708 
Q 1631 397 2203 397 
Q 2534 397 2845 478 
Q 3156 559 3463 722 
L 3463 178 
Q 3153 47 2828 -22 
Q 2503 -91 2169 -91 
Q 1331 -91 842 396 
Q 353 884 353 1716 
Q 353 2575 817 3079 
Q 1281 3584 2069 3584 
Q 2775 3584 3186 3129 
Q 3597 2675 3597 1894 
z
M 3022 2063 
Q 3016 2534 2758 2815 
Q 2500 3097 2075 3097 
Q 1594 3097 1305 2825 
Q 1016 2553 972 2059 
L 3022 2063 
z
" transform="scale(0.015625)"/>
      <path id="DejaVuSans-20" transform="scale(0.015625)"/>
      <path id="DejaVuSans-2f" d="M 1625 4666 
L 2156 4666 
L 531 -594 
L 0 -594 
L 1625 4666 
z
" transform="scale(0.015625)"/>
      <path id="DejaVuSans-78" d="M 3513 3500 
L 2247 1797 
L 3578 0 
L 2900 0 
L 1881 1375 
L 863 0 
L 184 0 
L 1544 1831 
L 300 3500 
L 978 3500 
L 1906 2253 
L 2834 3500 
L 3513 3500 
z
" transform="scale(0.015625)"/>
     </defs>
     <use xlink:href="#DejaVuSans-69"/>
     <use xlink:href="#DejaVuSans-6e" transform="translate(27.783203 0)"/>
     <use xlink:href="#DejaVuSans-63" transform="translate(91.162109 0)"/>
     <use xlink:href="#DejaVuSans-6c" transform="translate(146.142578 0)"/>
     <use xlink:href="#DejaVuSans-75" transform="translate(173.925781 0)"/>
     <use xlink:href="#DejaVuSans-64" transform="translate(237.304688 0)"/>
     <use xlink:href="#DejaVuSans-65" transform="translate(300.78125 0)"/>
     <use xlink:href="#DejaVuSans-20" transform="translate(362.304688 0)"/>
     <use xlink:href="#DejaVuSans-2f" transform="translate(394.091797 0)"/>
     <use xlink:href="#DejaVuSans-20" transform="translate(427.783203 0)"/>
     <use xlink:href="#DejaVuSans-65" transform="translate(459.570312 0)"/>
     <use xlink:href="#DejaVuSans-78" transform="translate(519.34375 0)"/>
     <use xlink:href="#DejaVuSans-74" transform="translate(578.523438 0)"/>
     <use xlink:href="#DejaVuSans-65" transform="translate(617.732422 0)"/>
     <use xlink:href="#DejaVuSans-6e" transform="translate(679.255859 0)"/>
     <use xlink:href="#DejaVuSans-64" transform="translate(742.634766 0)"/>
    </g>
   </g>
   <g id="text_6">
    <!-- generalization -->
    <g style="fill: #1f2a33" transform="translate(77.496 85.961344) scale(0.105 -0.105)">
     <defs>
      <path id="DejaVuSans-67" d="M 2906 1791 
Q 2906 2416 2648 2759 
Q 2391 3103 1925 3103 
Q 1463 3103 1205 2759 
Q 947 2416 947 1791 
Q 947 1169 1205 825 
Q 1463 481 1925 481 
Q 2391 481 2648 825 
Q 2906 1169 2906 1791 
z
M 3481 434 
Q 3481 -459 3084 -895 
Q 2688 -1331 1869 -1331 
Q 1566 -1331 1297 -1286 
Q 1028 -1241 775 -1147 
L 775 -588 
Q 1028 -725 1275 -790 
Q 1522 -856 1778 -856 
Q 2344 -856 2625 -561 
Q 2906 -266 2906 331 
L 2906 616 
Q 2728 306 2450 153 
Q 2172 0 1784 0 
Q 1141 0 747 490 
Q 353 981 353 1791 
Q 353 2603 747 3093 
Q 1141 3584 1784 3584 
Q 2172 3584 2450 3431 
Q 2728 3278 2906 2969 
L 2906 3500 
L 3481 3500 
L 3481 434 
z
" transform="scale(0.015625)"/>
      <path id="DejaVuSans-72" d="M 2631 2963 
Q 2534 3019 2420 3045 
Q 2306 3072 2169 3072 
Q 1681 3072 1420 2755 
Q 1159 2438 1159 1844 
L 1159 0 
L 581 0 
L 581 3500 
L 1159 3500 
L 1159 2956 
Q 1341 3275 1631 3429 
Q 1922 3584 2338 3584 
Q 2397 3584 2469 3576 
Q 2541 3569 2628 3553 
L 2631 2963 
z
" transform="scale(0.015625)"/>
      <path id="DejaVuSans-7a" d="M 353 3500 
L 3084 3500 
L 3084 2975 
L 922 459 
L 3084 459 
L 3084 0 
L 275 0 
L 275 525 
L 2438 3041 
L 353 3041 
L 353 3500 
z
" transform="scale(0.015625)"/>
     </defs>
     <use xlink:href="#DejaVuSans-67"/>
     <use xlink:href="#DejaVuSans-65" transform="translate(63.476562 0)"/>
     <use xlink:href="#DejaVuSans-6e" transform="translate(125 0)"/>
     <use xlink:href="#DejaVuSans-65" transform="translate(188.378906 0)"/>
     <use xlink:href="#DejaVuSans-72" transform="translate(249.902344 0)"/>
     <use xlink:href="#DejaVuSans-61" transform="translate(291.015625 0)"/>
     <use xlink:href="#DejaVuSans-6c" transform="translate(352.294922 0)"/>
     <use xlink:href="#DejaVuSans-69" transform="translate(380.078125 0)"/>
     <use xlink:href="#DejaVuSans-7a" transform="translate(407.861328 0)"/>
     <use xlink:href="#DejaVuSans-61" transform="translate(460.351562 0)"/>
     <use xlink:href="#DejaVuSans-74" transform="translate(521.630859 0)"/>
     <use xlink:href="#DejaVuSans-69" transform="translate(560.839844 0)"/>
     <use xlink:href="#DejaVuSans-6f" transform="translate(588.623047 0)"/>
     <use xlink:href="#DejaVuSans-6e" transform="translate(649.804688 0)"/>
    </g>
   </g>
   <g id="patch_14">
    <path d="M 275.16 142.224 
C 296.84831 142.224 317.651242 139.363937 332.987193 134.273706 
C 348.323143 129.183476 356.94 122.278673 356.94 115.08 
C 356.94 107.881327 348.323143 100.976524 332.987193 95.886294 
C 317.651242 90.796063 296.84831 87.936 275.16 87.936 
C 253.47169 87.936 232.668758 90.796063 217.332807 95.886294 
C 201.996857 100.976524 193.38 107.881327 193.38 115.08 
C 193.38 122.278673 201.996857 129.183476 217.332807 134.273706 
C 232.668758 139.363937 253.47169 142.224 275.16 142.224 
z
" clip-path="url(#p5f4a204b52)" style="fill: #e7eef2; stroke: #3f4c55; stroke-width: 1.7; stroke-linejoin: miter"/>
   </g>
   <g id="patch_15">
    <path d="M 275.16 201.384 
C 296.84831 201.384 317.651242 198.523937 332.987193 193.433706 
C 348.323143 188.343476 356.94 181.438673 356.94 174.24 
C 356.94 167.041327 348.323143 160.136524 332.987193 155.046294 
C 317.651242 149.956063 296.84831 147.096 275.16 147.096 
C 253.47169 147.096 232.668758 149.956063 217.332807 155.046294 
C 201.996857 160.136524 193.38 167.041327 193.38 174.24 
C 193.38 181.438673 201.996857 188.343476 217.332807 193.433706 
C 232.668758 198.523937 253.47169 201.384 275.16 201.384 
z
" clip-path="url(#p5f4a204b52)" style="fill: #e7eef2; stroke: #3f4c55; stroke-width: 1.7; stroke-linejoin: miter"/>
   </g>
   <g id="patch_16">
    <path d="M 275.16 264.024 
C 297.771216 264.024 319.45938 261.163937 335.447924 256.073706 
C 351.436469 250.983476 360.42 244.078673 360.42 236.88 
C 360.42 229.681327 351.436469 222.776524 335.447924 217.686294 
C 319.45938 212.596063 297.771216 209.736 275.16 209.736 
C 252.548784 209.736 230.86062 212.596063 214.872076 217.686294 
C 198.883531 222.776524 189.9 229.681327 189.9 236.88 
C 189.9 244.078673 198.883531 250.983476 214.872076 256.073706 
C 230.86062 261.163937 252.548784 264.024 275.16 264.024 
z
" clip-path="url(#p5f4a204b52)" style="fill: #e7eef2; stroke: #3f4c55; stroke-width: 1.7; stroke-linejoin: miter"/>
   </g>
   <g id="patch_17">
    <path d="M 275.16 337.104 
C 297.771216 337.104 319.45938 334.243937 335.447924 329.153706 
C 351.436469 324.063476 360.42 317.158673 360.42 309.96 
C 360.42 302.761327 351.436469 295.856524 335.447924 290.766294 
C 319.45938 285.676063 297.771216 282.816 275.16 282.816 
C 252.548784 282.816 230.86062 285.676063 214.872076 290.766294 
C 198.883531 295.856524 189.9 302.761327 189.9 309.96 
C 189.9 317.158673 198.883531 324.063476 214.872076 329.153706 
C 230.86062 334.243937 252.548784 337.104 275.16 337.104 
z
" clip-path="url(#p5f4a204b52)" style="fill: #e7eef2; stroke: #3f4c55; stroke-width: 1.7; stroke-linejoin: miter"/>
   </g>
   <g id="patch_18">
    <path d="M 275.16 410.184 
C 296.84831 410.184 317.651242 407.323937 332.987193 402.233706 
C 348.323143 397.143476 356.94 390.238673 356.94 383.04 
C 356.94 375.841327 348.323143 368.936524 332.987193 363.846294 
C 317.651242 358.756063 296.84831 355.896 275.16 355.896 
C 253.47169 355.896 232.668758 358.756063 217.332807 363.846294 
C 201.996857 368.936524 193.38 375.841327 193.38 383.04 
C 193.38 390.238673 201.996857 397.143476 217.332807 402.233706 
C 232.668758 407.323937 253.47169 410.184 275.16 410.184 
z
" clip-path="url(#p5f4a204b52)" style="fill: #e7eef2; stroke: #3f4c55; stroke-width: 1.7; stroke-linejoin: miter"/>
   </g>
   <g id="patch_19">
    <path d="M 275.16 486.744 
C 296.84831 486.744 317.651242 483.883937 332.987193 478.793706 
C 348.323143 473.703476 356.94 466.798673 356.94 459.6 
C 356.94 452.401327 348.323143 445.496524 332.987193 440.406294 
C 317.651242 435.316063 296.84831 432.456 275.16 432.456 
C 253.47169 432.456 232.668758 435.316063 217.332807 440.406294 
C 201.996857 445.496524 193.38 452.401327 193.38 459.6 
C 193.38 466.798673 201.996857 473.703476 217.332807 478.793706 
C 232.668758 483.883937 253.47169 486.744 275.16 486.744 
z
" clip-path="url(#p5f4a204b52)" style="fill: #e7eef2; stroke: #3f4c55; stroke-width: 1.7; stroke-linejoin: miter"/>
   </g>
   <g id="patch_20">
    <path d="M 445.68 147.096 
C 463.676682 147.096 480.93869 143.722592 493.664266 137.718731 
C 506.389842 131.714869 513.54 123.570742 513.54 115.08 
C 513.54 106.589258 506.389842 98.445131 493.664266 92.441269 
C 480.93869 86.437408 463.676682 83.064 445.68 83.064 
C 427.683318 83.064 410.42131 86.437408 397.695734 92.441269 
C 384.970158 98.445131 377.82 106.589258 377.82 115.08 
C 377.82 123.570742 384.970158 131.714869 397.695734 137.718731 
C 410.42131 143.722592 427.683318 147.096 445.68 147.096 
z
" clip-path="url(#p5f4a204b52)" style="fill: #e7eef2; stroke: #3f4c55; stroke-width: 1.7; stroke-linejoin: miter"/>
   </g>
   <g id="patch_21">
    <path d="M 445.68 211.824 
C 463.676682 211.824 480.93869 208.963937 493.664266 203.873706 
C 506.389842 198.783476 513.54 191.878673 513.54 184.68 
C 513.54 177.481327 506.389842 170.576524 493.664266 165.486294 
C 480.93869 160.396063 463.676682 157.536 445.68 157.536 
C 427.683318 157.536 410.42131 160.396063 397.695734 165.486294 
C 384.970158 170.576524 377.82 177.481327 377.82 184.68 
C 377.82 191.878673 384.970158 198.783476 397.695734 203.873706 
C 410.42131 208.963937 427.683318 211.824 445.68 211.824 
z
" clip-path="url(#p5f4a204b52)" style="fill: #e7eef2; stroke: #3f4c55; stroke-width: 1.7; stroke-linejoin: miter"/>
   </g>
   <g id="patch_22">
    <path d="M 445.68 281.424 
C 463.676682 281.424 480.93869 278.563937 493.664266 273.473706 
C 506.389842 268.383476 513.54 261.478673 513.54 254.28 
C 513.54 247.081327 506.389842 240.176524 493.664266 235.086294 
C 480.93869 229.996063 463.676682 227.136 445.68 227.136 
C 427.683318 227.136 410.42131 229.996063 397.695734 235.086294 
C 384.970158 240.176524 377.82 247.081327 377.82 254.28 
C 377.82 261.478673 384.970158 268.383476 397.695734 273.473706 
C 410.42131 278.563937 427.683318 281.424 445.68 281.424 
z
" clip-path="url(#p5f4a204b52)" style="fill: #e7eef2; stroke: #3f4c55; stroke-width: 1.7; stroke-linejoin: miter"/>
   </g>
   <g id="patch_23">
    <path d="M 445.68 366.336 
C 464.599589 366.336 482.746828 362.962592 496.124998 356.958731 
C 509.503168 350.954869 517.02 342.810742 517.02 334.32 
C 517.02 325.829258 509.503168 317.685131 496.124998 311.681269 
C 482.746828 305.677408 464.599589 302.304 445.68 302.304 
C 426.760411 302.304 408.613172 305.677408 395.235002 311.681269 
C 381.856832 317.685131 374.34 325.829258 374.34 334.32 
C 374.34 342.810742 381.856832 350.954869 395.235002 356.958731 
C 408.613172 362.962592 426.760411 366.336 445.68 366.336 
z
" clip-path="url(#p5f4a204b52)" style="fill: #e7eef2; stroke: #3f4c55; stroke-width: 1.7; stroke-linejoin: miter"/>
   </g>
   <g id="patch_24">
    <path d="M 445.68 438.024 
C 464.599589 438.024 482.746828 435.163937 496.124998 430.073706 
C 509.503168 424.983476 517.02 418.078673 517.02 410.88 
C 517.02 403.681327 509.503168 396.776524 496.124998 391.686294 
C 482.746828 386.596063 464.599589 383.736 445.68 383.736 
C 426.760411 383.736 408.613172 386.596063 395.235002 391.686294 
C 381.856832 396.776524 374.34 403.681327 374.34 410.88 
C 374.34 418.078673 381.856832 424.983476 395.235002 430.073706 
C 408.613172 435.163937 426.760411 438.024 445.68 438.024 
z
" clip-path="url(#p5f4a204b52)" style="fill: #e7eef2; stroke: #3f4c55; stroke-width: 1.7; stroke-linejoin: miter"/>
   </g>
   <g id="patch_25">
    <path d="M 445.68 519.456 
C 464.599589 519.456 482.746828 516.082592 496.124998 510.078731 
C 509.503168 504.074869 517.02 495.930742 517.02 487.44 
C 517.02 478.949258 509.503168 470.805131 496.124998 464.801269 
C 482.746828 458.797408 464.599589 455.424 445.68 455.424 
C 426.760411 455.424 408.613172 458.797408 395.235002 464.801269 
C 381.856832 470.805131 374.34 478.949258 374.34 487.44 
C 374.34 495.930742 381.856832 504.074869 395.235002 510.078731 
C 408.613172 516.082592 426.760411 519.456 445.68 519.456 
z
" clip-path="url(#p5f4a204b52)" style="fill: #e7eef2; stroke: #3f4c55; stroke-width: 1.7; stroke-linejoin: miter"/>
   </g>
   <g id="patch_26">
    <path d="M 445.68 587.664 
C 464.599589 587.664 482.746828 584.803937 496.124998 579.713706 
C 509.503168 574.623476 517.02 567.718673 517.02 560.52 
C 517.02 553.321327 509.503168 546.416524 496.124998 541.326294 
C 482.746828 536.236063 464.599589 533.376 445.68 533.376 
C 426.760411 533.376 408.613172 536.236063 395.235002 541.326294 
C 381.856832 546.416524 374.34 553.321327 374.34 560.52 
C 374.34 567.718673 381.856832 574.623476 395.235002 579.713706 
C 408.613172 584.803937 426.760411 587.664 445.68 587.664 
z
" clip-path="url(#p5f4a204b52)" style="fill: #e7eef2; stroke: #3f4c55; stroke-width: 1.7; stroke-linejoin: miter"/>
   </g>
   <g id="patch_27">
    <path d="M 602.28 152.664 
C 617.969415 152.664 633.018345 149.803937 644.112437 144.713706 
C 655.206529 139.623476 661.44 132.718673 661.44 125.52 
C 661.44 118.321327 655.206529 111.416524 644.112437 106.326294 
C 633.018345 101.236063 617.969415 98.376 602.28 98.376 
C 586.590585 98.376 571.541655 101.236063 560.447563 106.326294 
C 549.353471 111.416524 543.12 118.321327 543.12 125.52 
C 543.12 132.718673 549.353471 139.623476 560.447563 144.713706 
C 571.541655 149.803937 586.590585 152.664 602.28 152.664 
z
" clip-path="url(#p5f4a204b52)" style="fill: #f0dede; stroke: #3f4c55; stroke-width: 1.7; stroke-linejoin: miter"/>
   </g>
   <g id="patch_28">
    <path d="M 602.28 229.224 
C 617.969415 229.224 633.018345 226.363937 644.112437 221.273706 
C 655.206529 216.183476 661.44 209.278673 661.44 202.08 
C 661.44 194.881327 655.206529 187.976524 644.112437 182.886294 
C 633.018345 177.796063 617.969415 174.936 602.28 174.936 
C 586.590585 174.936 571.541655 177.796063 560.447563 182.886294 
C 549.353471 187.976524 543.12 194.881327 543.12 202.08 
C 543.12 209.278673 549.353471 216.183476 560.447563 221.273706 
C 571.541655 226.363937 586.590585 229.224 602.28 229.224 
z
" clip-path="url(#p5f4a204b52)" style="fill: #f0dede; stroke: #3f4c55; stroke-width: 1.7; stroke-linejoin: miter"/>
   </g>
   <g id="patch_29">
    <path d="M 602.28 305.784 
C 617.969415 305.784 633.018345 302.923937 644.112437 297.833706 
C 655.206529 292.743476 661.44 285.838673 661.44 278.64 
C 661.44 271.441327 655.206529 264.536524 644.112437 259.446294 
C 633.018345 254.356063 617.969415 251.496 602.28 251.496 
C 586.590585 251.496 571.541655 254.356063 560.447563 259.446294 
C 549.353471 264.536524 543.12 271.441327 543.12 278.64 
C 543.12 285.838673 549.353471 292.743476 560.447563 297.833706 
C 571.541655 302.923937 586.590585 305.784 602.28 305.784 
z
" clip-path="url(#p5f4a204b52)" style="fill: #f0dede; stroke: #3f4c55; stroke-width: 1.7; stroke-linejoin: miter"/>
   </g>
   <g id="patch_30">
    <path d="M 755.4 260.544 
C 776.626856 260.544 796.987173 257.683937 811.996827 252.593706 
C 827.006481 247.503476 835.44 240.598673 835.44 233.4 
C 835.44 226.201327 827.006481 219.296524 811.996827 214.206294 
C 796.987173 209.116063 776.626856 206.256 755.4 206.256 
C 734.173144 206.256 713.812827 209.116063 698.803173 214.206294 
C 683.793519 219.296524 675.36 226.201327 675.36 233.4 
C 675.36 240.598673 683.793519 247.503476 698.803173 252.593706 
C 713.812827 257.683937 734.173144 260.544 755.4 260.544 
z
" clip-path="url(#p5f4a204b52)" style="fill: #f0dede; stroke: #3f4c55; stroke-width: 1.7; stroke-linejoin: miter"/>
   </g>
   <g id="patch_31">
    <path d="M 755.4 458.904 
C 776.626856 458.904 796.987173 456.043937 811.996827 450.953706 
C 827.006481 445.863476 835.44 438.958673 835.44 431.76 
C 835.44 424.561327 827.006481 417.656524 811.996827 412.566294 
C 796.987173 407.476063 776.626856 404.616 755.4 404.616 
C 734.173144 404.616 713.812827 407.476063 698.803173 412.566294 
C 683.793519 417.656524 675.36 424.561327 675.36 431.76 
C 675.36 438.958673 683.793519 445.863476 698.803173 450.953706 
C 713.812827 456.043937 734.173144 458.904 755.4 458.904 
z
" clip-path="url(#p5f4a204b52)" style="fill: #f0dede; stroke: #3f4c55; stroke-width: 1.7; stroke-linejoin: miter"/>
   </g>
   <g id="patch_32">
    <path d="M 87.24 163.8 
C 90.377883 163.8 93.387669 162.553306 95.606487 160.334487 
C 97.825306 158.115669 99.072 155.105883 99.072 151.968 
C 99.072 148.830117 97.825306 145.820331 95.606487 143.601513 
C 93.387669 141.382694 90.377883 140.136 87.24 140.136 
C 84.102117 140.136 81.092331 141.382694 78.873513 143.601513 
C 76.654694 145.820331 75.408 148.830117 75.408 151.968 
C 75.408 155.105883 76.654694 158.115669 78.873513 160.334487 
C 81.092331 162.553306 84.102117 163.8 87.24 163.8 
L 87.24 163.8 
z
" clip-path="url(#p5f4a204b52)" style="fill: none; stroke: #1f2a33; stroke-width: 2.4; stroke-linejoin: miter"/>
   </g>
   <g id="line2d_16">
    <path d="M 87.24 163.8 
L 87.24 196.512 
" clip-path="url(#p5f4a204b52)" style="fill: none; stroke: #1f2a33; stroke-width: 2.4; stroke-linecap: square"/>
   </g>
   <g id="line2d_17">
    <path d="M 69.144 174.24 
L 105.336 174.24 
" clip-path="url(#p5f4a204b52)" style="fill: none; stroke: #1f2a33; stroke-width: 2.4; stroke-linecap: square"/>
   </g>
   <g id="line2d_18">
    <path d="M 87.24 196.512 
L 73.32 220.176 
" clip-path="url(#p5f4a204b52)" style="fill: none; stroke: #1f2a33; stroke-width: 2.4; stroke-linecap: square"/>
   </g>
   <g id="line2d_19">
    <path d="M 87.24 196.512 
L 101.16 220.176 
" clip-path="url(#p5f4a204b52)" style="fill: none; stroke: #1f2a33; stroke-width: 2.4; stroke-linecap: square"/>
   </g>
   <g id="text_7">
    <!-- Guest -->
    <g style="fill: #1f2a33" transform="translate(56.041406 121.568594) scale(0.19 -0.19)">
     <defs>
      <path id="DejaVuSans-Bold-47" d="M 4781 347 
Q 4331 128 3847 18 
Q 3363 -91 2847 -91 
Q 1681 -91 1000 561 
Q 319 1213 319 2328 
Q 319 3456 1012 4103 
Q 1706 4750 2913 4750 
Q 3378 4750 3804 4662 
Q 4231 4575 4609 4403 
L 4609 3438 
Q 4219 3659 3833 3768 
Q 3447 3878 3059 3878 
Q 2341 3878 1952 3476 
Q 1563 3075 1563 2328 
Q 1563 1588 1938 1184 
Q 2313 781 3003 781 
Q 3191 781 3352 804 
Q 3513 828 3641 878 
L 3641 1784 
L 2906 1784 
L 2906 2591 
L 4781 2591 
L 4781 347 
z
" transform="scale(0.015625)"/>
     </defs>
     <use xlink:href="#DejaVuSans-Bold-47"/>
     <use xlink:href="#DejaVuSans-Bold-75" transform="translate(82.080078 0)"/>
     <use xlink:href="#DejaVuSans-Bold-65" transform="translate(153.271484 0)"/>
     <use xlink:href="#DejaVuSans-Bold-73" transform="translate(221.09375 0)"/>
     <use xlink:href="#DejaVuSans-Bold-74" transform="translate(280.615234 0)"/>
    </g>
   </g>
   <g id="patch_33">
    <path d="M 87.24 407.4 
C 90.377883 407.4 93.387669 406.153306 95.606487 403.934487 
C 97.825306 401.715669 99.072 398.705883 99.072 395.568 
C 99.072 392.430117 97.825306 389.420331 95.606487 387.201513 
C 93.387669 384.982694 90.377883 383.736 87.24 383.736 
C 84.102117 383.736 81.092331 384.982694 78.873513 387.201513 
C 76.654694 389.420331 75.408 392.430117 75.408 395.568 
C 75.408 398.705883 76.654694 401.715669 78.873513 403.934487 
C 81.092331 406.153306 84.102117 407.4 87.24 407.4 
L 87.24 407.4 
z
" clip-path="url(#p5f4a204b52)" style="fill: none; stroke: #1f2a33; stroke-width: 2.4; stroke-linejoin: miter"/>
   </g>
   <g id="line2d_20">
    <path d="M 87.24 407.4 
L 87.24 440.112 
" clip-path="url(#p5f4a204b52)" style="fill: none; stroke: #1f2a33; stroke-width: 2.4; stroke-linecap: square"/>
   </g>
   <g id="line2d_21">
    <path d="M 69.144 417.84 
L 105.336 417.84 
" clip-path="url(#p5f4a204b52)" style="fill: none; stroke: #1f2a33; stroke-width: 2.4; stroke-linecap: square"/>
   </g>
   <g id="line2d_22">
    <path d="M 87.24 440.112 
L 73.32 463.776 
" clip-path="url(#p5f4a204b52)" style="fill: none; stroke: #1f2a33; stroke-width: 2.4; stroke-linecap: square"/>
   </g>
   <g id="line2d_23">
    <path d="M 87.24 440.112 
L 101.16 463.776 
" clip-path="url(#p5f4a204b52)" style="fill: none; stroke: #1f2a33; stroke-width: 2.4; stroke-linecap: square"/>
   </g>
   <g id="text_8">
    <!-- Member -->
    <g style="fill: #1f2a33" transform="translate(43.514766 493.525031) scale(0.19 -0.19)">
     <defs>
      <path id="DejaVuSans-Bold-4d" d="M 588 4666 
L 2119 4666 
L 3181 2169 
L 4250 4666 
L 5778 4666 
L 5778 0 
L 4641 0 
L 4641 3413 
L 3566 897 
L 2803 897 
L 1728 3413 
L 1728 0 
L 588 0 
L 588 4666 
z
" transform="scale(0.015625)"/>
     </defs>
     <use xlink:href="#DejaVuSans-Bold-4d"/>
     <use xlink:href="#DejaVuSans-Bold-65" transform="translate(99.511719 0)"/>
     <use xlink:href="#DejaVuSans-Bold-6d" transform="translate(167.333984 0)"/>
     <use xlink:href="#DejaVuSans-Bold-62" transform="translate(271.533203 0)"/>
     <use xlink:href="#DejaVuSans-Bold-65" transform="translate(343.115234 0)"/>
     <use xlink:href="#DejaVuSans-Bold-72" transform="translate(410.9375 0)"/>
    </g>
    <!-- (Reader) -->
    <g style="fill: #1f2a33" transform="translate(40.458437 514.800875) scale(0.19 -0.19)">
     <defs>
      <path id="DejaVuSans-Bold-28" d="M 2413 -844 
L 1484 -844 
Q 1006 -72 778 623 
Q 550 1319 550 2003 
Q 550 2688 779 3389 
Q 1009 4091 1484 4856 
L 2413 4856 
Q 2013 4116 1813 3408 
Q 1613 2700 1613 2009 
Q 1613 1319 1811 609 
Q 2009 -100 2413 -844 
z
" transform="scale(0.015625)"/>
      <path id="DejaVuSans-Bold-52" d="M 2297 2597 
Q 2675 2597 2839 2737 
Q 3003 2878 3003 3200 
Q 3003 3519 2839 3656 
Q 2675 3794 2297 3794 
L 1791 3794 
L 1791 2597 
L 2297 2597 
z
M 1791 1766 
L 1791 0 
L 588 0 
L 588 4666 
L 2425 4666 
Q 3347 4666 3776 4356 
Q 4206 4047 4206 3378 
Q 4206 2916 3982 2619 
Q 3759 2322 3309 2181 
Q 3556 2125 3751 1926 
Q 3947 1728 4147 1325 
L 4800 0 
L 3519 0 
L 2950 1159 
Q 2778 1509 2601 1637 
Q 2425 1766 2131 1766 
L 1791 1766 
z
" transform="scale(0.015625)"/>
      <path id="DejaVuSans-Bold-64" d="M 2919 2988 
L 2919 4863 
L 4044 4863 
L 4044 0 
L 2919 0 
L 2919 506 
Q 2688 197 2409 53 
Q 2131 -91 1766 -91 
Q 1119 -91 703 423 
Q 288 938 288 1747 
Q 288 2556 703 3070 
Q 1119 3584 1766 3584 
Q 2128 3584 2408 3439 
Q 2688 3294 2919 2988 
z
M 2181 722 
Q 2541 722 2730 984 
Q 2919 1247 2919 1747 
Q 2919 2247 2730 2509 
Q 2541 2772 2181 2772 
Q 1825 2772 1636 2509 
Q 1447 2247 1447 1747 
Q 1447 1247 1636 984 
Q 1825 722 2181 722 
z
" transform="scale(0.015625)"/>
      <path id="DejaVuSans-Bold-29" d="M 513 -844 
Q 913 -100 1113 609 
Q 1313 1319 1313 2009 
Q 1313 2700 1113 3408 
Q 913 4116 513 4856 
L 1441 4856 
Q 1916 4091 2145 3389 
Q 2375 2688 2375 2003 
Q 2375 1319 2147 623 
Q 1919 -72 1441 -844 
L 513 -844 
z
" transform="scale(0.015625)"/>
     </defs>
     <use xlink:href="#DejaVuSans-Bold-28"/>
     <use xlink:href="#DejaVuSans-Bold-52" transform="translate(45.703125 0)"/>
     <use xlink:href="#DejaVuSans-Bold-65" transform="translate(122.705078 0)"/>
     <use xlink:href="#DejaVuSans-Bold-61" transform="translate(190.527344 0)"/>
     <use xlink:href="#DejaVuSans-Bold-64" transform="translate(258.007812 0)"/>
     <use xlink:href="#DejaVuSans-Bold-65" transform="translate(329.589844 0)"/>
     <use xlink:href="#DejaVuSans-Bold-72" transform="translate(397.412109 0)"/>
     <use xlink:href="#DejaVuSans-Bold-29" transform="translate(446.728516 0)"/>
    </g>
   </g>
   <g id="patch_34">
    <path d="M 918.96 177.72 
C 922.097883 177.72 925.107669 176.473306 927.326487 174.254487 
C 929.545306 172.035669 930.792 169.025883 930.792 165.888 
C 930.792 162.750117 929.545306 159.740331 927.326487 157.521513 
C 925.107669 155.302694 922.097883 154.056 918.96 154.056 
C 915.822117 154.056 912.812331 155.302694 910.593513 157.521513 
C 908.374694 159.740331 907.128 162.750117 907.128 165.888 
C 907.128 169.025883 908.374694 172.035669 910.593513 174.254487 
C 912.812331 176.473306 915.822117 177.72 918.96 177.72 
L 918.96 177.72 
z
" clip-path="url(#p5f4a204b52)" style="fill: none; stroke: #1f2a33; stroke-width: 2.4; stroke-linejoin: miter"/>
   </g>
   <g id="line2d_24">
    <path d="M 918.96 177.72 
L 918.96 210.432 
" clip-path="url(#p5f4a204b52)" style="fill: none; stroke: #1f2a33; stroke-width: 2.4; stroke-linecap: square"/>
   </g>
   <g id="line2d_25">
    <path d="M 900.864 188.16 
L 937.056 188.16 
" clip-path="url(#p5f4a204b52)" style="fill: none; stroke: #1f2a33; stroke-width: 2.4; stroke-linecap: square"/>
   </g>
   <g id="line2d_26">
    <path d="M 918.96 210.432 
L 905.04 234.096 
" clip-path="url(#p5f4a204b52)" style="fill: none; stroke: #1f2a33; stroke-width: 2.4; stroke-linecap: square"/>
   </g>
   <g id="line2d_27">
    <path d="M 918.96 210.432 
L 932.88 234.096 
" clip-path="url(#p5f4a204b52)" style="fill: none; stroke: #1f2a33; stroke-width: 2.4; stroke-linecap: square"/>
   </g>
   <g id="text_9">
    <!-- Librarian -->
    <g style="fill: #1f2a33" transform="translate(870.639141 135.488594) scale(0.19 -0.19)">
     <defs>
      <path id="DejaVuSans-Bold-6e" d="M 4056 2131 
L 4056 0 
L 2931 0 
L 2931 347 
L 2931 1631 
Q 2931 2084 2911 2256 
Q 2891 2428 2841 2509 
Q 2775 2619 2662 2680 
Q 2550 2741 2406 2741 
Q 2056 2741 1856 2470 
Q 1656 2200 1656 1722 
L 1656 0 
L 538 0 
L 538 3500 
L 1656 3500 
L 1656 2988 
Q 1909 3294 2193 3439 
Q 2478 3584 2822 3584 
Q 3428 3584 3742 3212 
Q 4056 2841 4056 2131 
z
" transform="scale(0.015625)"/>
     </defs>
     <use xlink:href="#DejaVuSans-Bold-4c"/>
     <use xlink:href="#DejaVuSans-Bold-69" transform="translate(63.720703 0)"/>
     <use xlink:href="#DejaVuSans-Bold-62" transform="translate(97.998047 0)"/>
     <use xlink:href="#DejaVuSans-Bold-72" transform="translate(169.580078 0)"/>
     <use xlink:href="#DejaVuSans-Bold-61" transform="translate(218.896484 0)"/>
     <use xlink:href="#DejaVuSans-Bold-72" transform="translate(286.376953 0)"/>
     <use xlink:href="#DejaVuSans-Bold-69" transform="translate(335.693359 0)"/>
     <use xlink:href="#DejaVuSans-Bold-61" transform="translate(369.970703 0)"/>
     <use xlink:href="#DejaVuSans-Bold-6e" transform="translate(437.451172 0)"/>
    </g>
   </g>
   <g id="patch_35">
    <path d="M 918.96 414.36 
C 922.097883 414.36 925.107669 413.113306 927.326487 410.894487 
C 929.545306 408.675669 930.792 405.665883 930.792 402.528 
C 930.792 399.390117 929.545306 396.380331 927.326487 394.161513 
C 925.107669 391.942694 922.097883 390.696 918.96 390.696 
C 915.822117 390.696 912.812331 391.942694 910.593513 394.161513 
C 908.374694 396.380331 907.128 399.390117 907.128 402.528 
C 907.128 405.665883 908.374694 408.675669 910.593513 410.894487 
C 912.812331 413.113306 915.822117 414.36 918.96 414.36 
L 918.96 414.36 
z
" clip-path="url(#p5f4a204b52)" style="fill: none; stroke: #1f2a33; stroke-width: 2.4; stroke-linejoin: miter"/>
   </g>
   <g id="line2d_28">
    <path d="M 918.96 414.36 
L 918.96 447.072 
" clip-path="url(#p5f4a204b52)" style="fill: none; stroke: #1f2a33; stroke-width: 2.4; stroke-linecap: square"/>
   </g>
   <g id="line2d_29">
    <path d="M 900.864 424.8 
L 937.056 424.8 
" clip-path="url(#p5f4a204b52)" style="fill: none; stroke: #1f2a33; stroke-width: 2.4; stroke-linecap: square"/>
   </g>
   <g id="line2d_30">
    <path d="M 918.96 447.072 
L 905.04 470.736 
" clip-path="url(#p5f4a204b52)" style="fill: none; stroke: #1f2a33; stroke-width: 2.4; stroke-linecap: square"/>
   </g>
   <g id="line2d_31">
    <path d="M 918.96 447.072 
L 932.88 470.736 
" clip-path="url(#p5f4a204b52)" style="fill: none; stroke: #1f2a33; stroke-width: 2.4; stroke-linecap: square"/>
   </g>
   <g id="text_10">
    <!-- Admin -->
    <g style="fill: #1f2a33" transform="translate(884.889141 500.485031) scale(0.19 -0.19)">
     <defs>
      <path id="DejaVuSans-Bold-41" d="M 3419 850 
L 1538 850 
L 1241 0 
L 31 0 
L 1759 4666 
L 3194 4666 
L 4922 0 
L 3713 0 
L 3419 850 
z
M 1838 1716 
L 3116 1716 
L 2478 3572 
L 1838 1716 
z
" transform="scale(0.015625)"/>
     </defs>
     <use xlink:href="#DejaVuSans-Bold-41"/>
     <use xlink:href="#DejaVuSans-Bold-64" transform="translate(77.392578 0)"/>
     <use xlink:href="#DejaVuSans-Bold-6d" transform="translate(148.974609 0)"/>
     <use xlink:href="#DejaVuSans-Bold-69" transform="translate(253.173828 0)"/>
     <use xlink:href="#DejaVuSans-Bold-6e" transform="translate(287.451172 0)"/>
    </g>
   </g>
   <g id="text_11">
    <!-- Register -->
    <g style="fill: #1f2a33" transform="translate(244.281094 119.219062) scale(0.15 -0.15)">
     <defs>
      <path id="DejaVuSans-52" d="M 2841 2188 
Q 3044 2119 3236 1894 
Q 3428 1669 3622 1275 
L 4263 0 
L 3584 0 
L 2988 1197 
Q 2756 1666 2539 1819 
Q 2322 1972 1947 1972 
L 1259 1972 
L 1259 0 
L 628 0 
L 628 4666 
L 2053 4666 
Q 2853 4666 3247 4331 
Q 3641 3997 3641 3322 
Q 3641 2881 3436 2590 
Q 3231 2300 2841 2188 
z
M 1259 4147 
L 1259 2491 
L 2053 2491 
Q 2509 2491 2742 2702 
Q 2975 2913 2975 3322 
Q 2975 3731 2742 3939 
Q 2509 4147 2053 4147 
L 1259 4147 
z
" transform="scale(0.015625)"/>
     </defs>
     <use xlink:href="#DejaVuSans-52"/>
     <use xlink:href="#DejaVuSans-65" transform="translate(64.982422 0)"/>
     <use xlink:href="#DejaVuSans-67" transform="translate(126.505859 0)"/>
     <use xlink:href="#DejaVuSans-69" transform="translate(189.982422 0)"/>
     <use xlink:href="#DejaVuSans-73" transform="translate(217.765625 0)"/>
     <use xlink:href="#DejaVuSans-74" transform="translate(269.865234 0)"/>
     <use xlink:href="#DejaVuSans-65" transform="translate(309.074219 0)"/>
     <use xlink:href="#DejaVuSans-72" transform="translate(370.597656 0)"/>
    </g>
   </g>
   <g id="text_12">
    <!-- Log In -->
    <g style="fill: #1f2a33" transform="translate(252.412734 178.379062) scale(0.15 -0.15)">
     <defs>
      <path id="DejaVuSans-4c" d="M 628 4666 
L 1259 4666 
L 1259 531 
L 3531 531 
L 3531 0 
L 628 0 
L 628 4666 
z
" transform="scale(0.015625)"/>
      <path id="DejaVuSans-49" d="M 628 4666 
L 1259 4666 
L 1259 0 
L 628 0 
L 628 4666 
z
" transform="scale(0.015625)"/>
     </defs>
     <use xlink:href="#DejaVuSans-4c"/>
     <use xlink:href="#DejaVuSans-6f" transform="translate(53.962891 0)"/>
     <use xlink:href="#DejaVuSans-67" transform="translate(115.144531 0)"/>
     <use xlink:href="#DejaVuSans-20" transform="translate(178.621094 0)"/>
     <use xlink:href="#DejaVuSans-49" transform="translate(210.408203 0)"/>
     <use xlink:href="#DejaVuSans-6e" transform="translate(239.900391 0)"/>
    </g>
   </g>
   <g id="text_13">
    <!-- Browse Catalogue -->
    <g style="fill: #1f2a33" transform="translate(207.300234 241.019062) scale(0.15 -0.15)">
     <defs>
      <path id="DejaVuSans-42" d="M 1259 2228 
L 1259 519 
L 2272 519 
Q 2781 519 3026 730 
Q 3272 941 3272 1375 
Q 3272 1813 3026 2020 
Q 2781 2228 2272 2228 
L 1259 2228 
z
M 1259 4147 
L 1259 2741 
L 2194 2741 
Q 2656 2741 2882 2914 
Q 3109 3088 3109 3444 
Q 3109 3797 2882 3972 
Q 2656 4147 2194 4147 
L 1259 4147 
z
M 628 4666 
L 2241 4666 
Q 2963 4666 3353 4366 
Q 3744 4066 3744 3513 
Q 3744 3084 3544 2831 
Q 3344 2578 2956 2516 
Q 3422 2416 3680 2098 
Q 3938 1781 3938 1306 
Q 3938 681 3513 340 
Q 3088 0 2303 0 
L 628 0 
L 628 4666 
z
" transform="scale(0.015625)"/>
      <path id="DejaVuSans-77" d="M 269 3500 
L 844 3500 
L 1563 769 
L 2278 3500 
L 2956 3500 
L 3675 769 
L 4391 3500 
L 4966 3500 
L 4050 0 
L 3372 0 
L 2619 2869 
L 1863 0 
L 1184 0 
L 269 3500 
z
" transform="scale(0.015625)"/>
      <path id="DejaVuSans-43" d="M 4122 4306 
L 4122 3641 
Q 3803 3938 3442 4084 
Q 3081 4231 2675 4231 
Q 1875 4231 1450 3742 
Q 1025 3253 1025 2328 
Q 1025 1406 1450 917 
Q 1875 428 2675 428 
Q 3081 428 3442 575 
Q 3803 722 4122 1019 
L 4122 359 
Q 3791 134 3420 21 
Q 3050 -91 2638 -91 
Q 1578 -91 968 557 
Q 359 1206 359 2328 
Q 359 3453 968 4101 
Q 1578 4750 2638 4750 
Q 3056 4750 3426 4639 
Q 3797 4528 4122 4306 
z
" transform="scale(0.015625)"/>
     </defs>
     <use xlink:href="#DejaVuSans-42"/>
     <use xlink:href="#DejaVuSans-72" transform="translate(68.603516 0)"/>
     <use xlink:href="#DejaVuSans-6f" transform="translate(107.466797 0)"/>
     <use xlink:href="#DejaVuSans-77" transform="translate(168.648438 0)"/>
     <use xlink:href="#DejaVuSans-73" transform="translate(250.435547 0)"/>
     <use xlink:href="#DejaVuSans-65" transform="translate(302.535156 0)"/>
     <use xlink:href="#DejaVuSans-20" transform="translate(364.058594 0)"/>
     <use xlink:href="#DejaVuSans-43" transform="translate(395.845703 0)"/>
     <use xlink:href="#DejaVuSans-61" transform="translate(465.669922 0)"/>
     <use xlink:href="#DejaVuSans-74" transform="translate(526.949219 0)"/>
     <use xlink:href="#DejaVuSans-61" transform="translate(566.158203 0)"/>
     <use xlink:href="#DejaVuSans-6c" transform="translate(627.4375 0)"/>
     <use xlink:href="#DejaVuSans-6f" transform="translate(655.220703 0)"/>
     <use xlink:href="#DejaVuSans-67" transform="translate(716.402344 0)"/>
     <use xlink:href="#DejaVuSans-75" transform="translate(779.878906 0)"/>
     <use xlink:href="#DejaVuSans-65" transform="translate(843.257812 0)"/>
    </g>
   </g>
   <g id="text_14">
    <!-- Search Catalogue -->
    <g style="fill: #1f2a33" transform="translate(208.84125 314.099062) scale(0.15 -0.15)">
     <defs>
      <path id="DejaVuSans-53" d="M 3425 4513 
L 3425 3897 
Q 3066 4069 2747 4153 
Q 2428 4238 2131 4238 
Q 1616 4238 1336 4038 
Q 1056 3838 1056 3469 
Q 1056 3159 1242 3001 
Q 1428 2844 1947 2747 
L 2328 2669 
Q 3034 2534 3370 2195 
Q 3706 1856 3706 1288 
Q 3706 609 3251 259 
Q 2797 -91 1919 -91 
Q 1588 -91 1214 -16 
Q 841 59 441 206 
L 441 856 
Q 825 641 1194 531 
Q 1563 422 1919 422 
Q 2459 422 2753 634 
Q 3047 847 3047 1241 
Q 3047 1584 2836 1778 
Q 2625 1972 2144 2069 
L 1759 2144 
Q 1053 2284 737 2584 
Q 422 2884 422 3419 
Q 422 4038 858 4394 
Q 1294 4750 2059 4750 
Q 2388 4750 2728 4690 
Q 3069 4631 3425 4513 
z
" transform="scale(0.015625)"/>
      <path id="DejaVuSans-68" d="M 3513 2113 
L 3513 0 
L 2938 0 
L 2938 2094 
Q 2938 2591 2744 2837 
Q 2550 3084 2163 3084 
Q 1697 3084 1428 2787 
Q 1159 2491 1159 1978 
L 1159 0 
L 581 0 
L 581 4863 
L 1159 4863 
L 1159 2956 
Q 1366 3272 1645 3428 
Q 1925 3584 2291 3584 
Q 2894 3584 3203 3211 
Q 3513 2838 3513 2113 
z
" transform="scale(0.015625)"/>
     </defs>
     <use xlink:href="#DejaVuSans-53"/>
     <use xlink:href="#DejaVuSans-65" transform="translate(63.476562 0)"/>
     <use xlink:href="#DejaVuSans-61" transform="translate(125 0)"/>
     <use xlink:href="#DejaVuSans-72" transform="translate(186.279297 0)"/>
     <use xlink:href="#DejaVuSans-63" transform="translate(225.142578 0)"/>
     <use xlink:href="#DejaVuSans-68" transform="translate(280.123047 0)"/>
     <use xlink:href="#DejaVuSans-20" transform="translate(343.501953 0)"/>
     <use xlink:href="#DejaVuSans-43" transform="translate(375.289062 0)"/>
     <use xlink:href="#DejaVuSans-61" transform="translate(445.113281 0)"/>
     <use xlink:href="#DejaVuSans-74" transform="translate(506.392578 0)"/>
     <use xlink:href="#DejaVuSans-61" transform="translate(545.601562 0)"/>
     <use xlink:href="#DejaVuSans-6c" transform="translate(606.880859 0)"/>
     <use xlink:href="#DejaVuSans-6f" transform="translate(634.664062 0)"/>
     <use xlink:href="#DejaVuSans-67" transform="translate(695.845703 0)"/>
     <use xlink:href="#DejaVuSans-75" transform="translate(759.322266 0)"/>
     <use xlink:href="#DejaVuSans-65" transform="translate(822.701172 0)"/>
    </g>
   </g>
   <g id="text_15">
    <!-- Filter by Genre -->
    <g style="fill: #1f2a33" transform="translate(219.908437 387.179062) scale(0.15 -0.15)">
     <defs>
      <path id="DejaVuSans-46" d="M 628 4666 
L 3309 4666 
L 3309 4134 
L 1259 4134 
L 1259 2759 
L 3109 2759 
L 3109 2228 
L 1259 2228 
L 1259 0 
L 628 0 
L 628 4666 
z
" transform="scale(0.015625)"/>
      <path id="DejaVuSans-62" d="M 3116 1747 
Q 3116 2381 2855 2742 
Q 2594 3103 2138 3103 
Q 1681 3103 1420 2742 
Q 1159 2381 1159 1747 
Q 1159 1113 1420 752 
Q 1681 391 2138 391 
Q 2594 391 2855 752 
Q 3116 1113 3116 1747 
z
M 1159 2969 
Q 1341 3281 1617 3432 
Q 1894 3584 2278 3584 
Q 2916 3584 3314 3078 
Q 3713 2572 3713 1747 
Q 3713 922 3314 415 
Q 2916 -91 2278 -91 
Q 1894 -91 1617 61 
Q 1341 213 1159 525 
L 1159 0 
L 581 0 
L 581 4863 
L 1159 4863 
L 1159 2969 
z
" transform="scale(0.015625)"/>
      <path id="DejaVuSans-79" d="M 2059 -325 
Q 1816 -950 1584 -1140 
Q 1353 -1331 966 -1331 
L 506 -1331 
L 506 -850 
L 844 -850 
Q 1081 -850 1212 -737 
Q 1344 -625 1503 -206 
L 1606 56 
L 191 3500 
L 800 3500 
L 1894 763 
L 2988 3500 
L 3597 3500 
L 2059 -325 
z
" transform="scale(0.015625)"/>
      <path id="DejaVuSans-47" d="M 3809 666 
L 3809 1919 
L 2778 1919 
L 2778 2438 
L 4434 2438 
L 4434 434 
Q 4069 175 3628 42 
Q 3188 -91 2688 -91 
Q 1594 -91 976 548 
Q 359 1188 359 2328 
Q 359 3472 976 4111 
Q 1594 4750 2688 4750 
Q 3144 4750 3555 4637 
Q 3966 4525 4313 4306 
L 4313 3634 
Q 3963 3931 3569 4081 
Q 3175 4231 2741 4231 
Q 1884 4231 1454 3753 
Q 1025 3275 1025 2328 
Q 1025 1384 1454 906 
Q 1884 428 2741 428 
Q 3075 428 3337 486 
Q 3600 544 3809 666 
z
" transform="scale(0.015625)"/>
     </defs>
     <use xlink:href="#DejaVuSans-46"/>
     <use xlink:href="#DejaVuSans-69" transform="translate(50.269531 0)"/>
     <use xlink:href="#DejaVuSans-6c" transform="translate(78.052734 0)"/>
     <use xlink:href="#DejaVuSans-74" transform="translate(105.835938 0)"/>
     <use xlink:href="#DejaVuSans-65" transform="translate(145.044922 0)"/>
     <use xlink:href="#DejaVuSans-72" transform="translate(206.568359 0)"/>
     <use xlink:href="#DejaVuSans-20" transform="translate(247.681641 0)"/>
     <use xlink:href="#DejaVuSans-62" transform="translate(279.46875 0)"/>
     <use xlink:href="#DejaVuSans-79" transform="translate(342.945312 0)"/>
     <use xlink:href="#DejaVuSans-20" transform="translate(402.125 0)"/>
     <use xlink:href="#DejaVuSans-47" transform="translate(433.912109 0)"/>
     <use xlink:href="#DejaVuSans-65" transform="translate(511.402344 0)"/>
     <use xlink:href="#DejaVuSans-6e" transform="translate(572.925781 0)"/>
     <use xlink:href="#DejaVuSans-72" transform="translate(636.304688 0)"/>
     <use xlink:href="#DejaVuSans-65" transform="translate(675.167969 0)"/>
    </g>
   </g>
   <g id="text_16">
    <!-- Log Out -->
    <g style="fill: #1f2a33" transform="translate(245.781094 463.739062) scale(0.15 -0.15)">
     <defs>
      <path id="DejaVuSans-4f" d="M 2522 4238 
Q 1834 4238 1429 3725 
Q 1025 3213 1025 2328 
Q 1025 1447 1429 934 
Q 1834 422 2522 422 
Q 3209 422 3611 934 
Q 4013 1447 4013 2328 
Q 4013 3213 3611 3725 
Q 3209 4238 2522 4238 
z
M 2522 4750 
Q 3503 4750 4090 4092 
Q 4678 3434 4678 2328 
Q 4678 1225 4090 567 
Q 3503 -91 2522 -91 
Q 1538 -91 948 565 
Q 359 1222 359 2328 
Q 359 3434 948 4092 
Q 1538 4750 2522 4750 
z
" transform="scale(0.015625)"/>
     </defs>
     <use xlink:href="#DejaVuSans-4c"/>
     <use xlink:href="#DejaVuSans-6f" transform="translate(53.962891 0)"/>
     <use xlink:href="#DejaVuSans-67" transform="translate(115.144531 0)"/>
     <use xlink:href="#DejaVuSans-20" transform="translate(178.621094 0)"/>
     <use xlink:href="#DejaVuSans-4f" transform="translate(210.408203 0)"/>
     <use xlink:href="#DejaVuSans-75" transform="translate(289.119141 0)"/>
     <use xlink:href="#DejaVuSans-74" transform="translate(352.498047 0)"/>
    </g>
   </g>
   <g id="text_17">
    <!-- View Book -->
    <g style="fill: #1f2a33" transform="translate(406.835859 110.820703) scale(0.15 -0.15)">
     <defs>
      <path id="DejaVuSans-56" d="M 1831 0 
L 50 4666 
L 709 4666 
L 2188 738 
L 3669 4666 
L 4325 4666 
L 2547 0 
L 1831 0 
z
" transform="scale(0.015625)"/>
      <path id="DejaVuSans-6b" d="M 581 4863 
L 1159 4863 
L 1159 1991 
L 2875 3500 
L 3609 3500 
L 1753 1863 
L 3688 0 
L 2938 0 
L 1159 1709 
L 1159 0 
L 581 0 
L 581 4863 
z
" transform="scale(0.015625)"/>
     </defs>
     <use xlink:href="#DejaVuSans-56"/>
     <use xlink:href="#DejaVuSans-69" transform="translate(66.158203 0)"/>
     <use xlink:href="#DejaVuSans-65" transform="translate(93.941406 0)"/>
     <use xlink:href="#DejaVuSans-77" transform="translate(155.464844 0)"/>
     <use xlink:href="#DejaVuSans-20" transform="translate(237.251953 0)"/>
     <use xlink:href="#DejaVuSans-42" transform="translate(269.039062 0)"/>
     <use xlink:href="#DejaVuSans-6f" transform="translate(337.642578 0)"/>
     <use xlink:href="#DejaVuSans-6f" transform="translate(398.824219 0)"/>
     <use xlink:href="#DejaVuSans-6b" transform="translate(460.005859 0)"/>
    </g>
    <!-- Details -->
    <g style="fill: #1f2a33" transform="translate(419.679609 127.617422) scale(0.15 -0.15)">
     <defs>
      <path id="DejaVuSans-44" d="M 1259 4147 
L 1259 519 
L 2022 519 
Q 2988 519 3436 956 
Q 3884 1394 3884 2338 
Q 3884 3275 3436 3711 
Q 2988 4147 2022 4147 
L 1259 4147 
z
M 628 4666 
L 1925 4666 
Q 3281 4666 3915 4102 
Q 4550 3538 4550 2338 
Q 4550 1131 3912 565 
Q 3275 0 1925 0 
L 628 0 
L 628 4666 
z
" transform="scale(0.015625)"/>
     </defs>
     <use xlink:href="#DejaVuSans-44"/>
     <use xlink:href="#DejaVuSans-65" transform="translate(77.001953 0)"/>
     <use xlink:href="#DejaVuSans-74" transform="translate(138.525391 0)"/>
     <use xlink:href="#DejaVuSans-61" transform="translate(177.734375 0)"/>
     <use xlink:href="#DejaVuSans-69" transform="translate(239.013672 0)"/>
     <use xlink:href="#DejaVuSans-6c" transform="translate(266.796875 0)"/>
     <use xlink:href="#DejaVuSans-73" transform="translate(294.580078 0)"/>
    </g>
   </g>
   <g id="text_18">
    <!-- Rate Book -->
    <g style="fill: #1f2a33" transform="translate(407.435859 188.819062) scale(0.15 -0.15)">
     <use xlink:href="#DejaVuSans-52"/>
     <use xlink:href="#DejaVuSans-61" transform="translate(67.232422 0)"/>
     <use xlink:href="#DejaVuSans-74" transform="translate(128.511719 0)"/>
     <use xlink:href="#DejaVuSans-65" transform="translate(167.720703 0)"/>
     <use xlink:href="#DejaVuSans-20" transform="translate(229.244141 0)"/>
     <use xlink:href="#DejaVuSans-42" transform="translate(261.03125 0)"/>
     <use xlink:href="#DejaVuSans-6f" transform="translate(329.634766 0)"/>
     <use xlink:href="#DejaVuSans-6f" transform="translate(390.816406 0)"/>
     <use xlink:href="#DejaVuSans-6b" transform="translate(451.998047 0)"/>
    </g>
   </g>
   <g id="text_19">
    <!-- Write Review -->
    <g style="fill: #1f2a33" transform="translate(396.736641 258.419062) scale(0.15 -0.15)">
     <defs>
      <path id="DejaVuSans-57" d="M 213 4666 
L 850 4666 
L 1831 722 
L 2809 4666 
L 3519 4666 
L 4500 722 
L 5478 4666 
L 6119 4666 
L 4947 0 
L 4153 0 
L 3169 4050 
L 2175 0 
L 1381 0 
L 213 4666 
z
" transform="scale(0.015625)"/>
      <path id="DejaVuSans-76" d="M 191 3500 
L 800 3500 
L 1894 563 
L 2988 3500 
L 3597 3500 
L 2284 0 
L 1503 0 
L 191 3500 
z
" transform="scale(0.015625)"/>
     </defs>
     <use xlink:href="#DejaVuSans-57"/>
     <use xlink:href="#DejaVuSans-72" transform="translate(94.376953 0)"/>
     <use xlink:href="#DejaVuSans-69" transform="translate(135.490234 0)"/>
     <use xlink:href="#DejaVuSans-74" transform="translate(163.273438 0)"/>
     <use xlink:href="#DejaVuSans-65" transform="translate(202.482422 0)"/>
     <use xlink:href="#DejaVuSans-20" transform="translate(264.005859 0)"/>
     <use xlink:href="#DejaVuSans-52" transform="translate(295.792969 0)"/>
     <use xlink:href="#DejaVuSans-65" transform="translate(360.775391 0)"/>
     <use xlink:href="#DejaVuSans-76" transform="translate(422.298828 0)"/>
     <use xlink:href="#DejaVuSans-69" transform="translate(481.478516 0)"/>
     <use xlink:href="#DejaVuSans-65" transform="translate(509.261719 0)"/>
     <use xlink:href="#DejaVuSans-77" transform="translate(570.785156 0)"/>
    </g>
   </g>
   <g id="text_20">
    <!-- View -->
    <g style="fill: #1f2a33" transform="translate(427.88625 330.060703) scale(0.15 -0.15)">
     <use xlink:href="#DejaVuSans-56"/>
     <use xlink:href="#DejaVuSans-69" transform="translate(66.158203 0)"/>
     <use xlink:href="#DejaVuSans-65" transform="translate(93.941406 0)"/>
     <use xlink:href="#DejaVuSans-77" transform="translate(155.464844 0)"/>
    </g>
    <!-- Recommendations -->
    <g style="fill: #1f2a33" transform="translate(375.869062 346.857422) scale(0.15 -0.15)">
     <defs>
      <path id="DejaVuSans-6d" d="M 3328 2828 
Q 3544 3216 3844 3400 
Q 4144 3584 4550 3584 
Q 5097 3584 5394 3201 
Q 5691 2819 5691 2113 
L 5691 0 
L 5113 0 
L 5113 2094 
Q 5113 2597 4934 2840 
Q 4756 3084 4391 3084 
Q 3944 3084 3684 2787 
Q 3425 2491 3425 1978 
L 3425 0 
L 2847 0 
L 2847 2094 
Q 2847 2600 2669 2842 
Q 2491 3084 2119 3084 
Q 1678 3084 1418 2786 
Q 1159 2488 1159 1978 
L 1159 0 
L 581 0 
L 581 3500 
L 1159 3500 
L 1159 2956 
Q 1356 3278 1631 3431 
Q 1906 3584 2284 3584 
Q 2666 3584 2933 3390 
Q 3200 3197 3328 2828 
z
" transform="scale(0.015625)"/>
     </defs>
     <use xlink:href="#DejaVuSans-52"/>
     <use xlink:href="#DejaVuSans-65" transform="translate(64.982422 0)"/>
     <use xlink:href="#DejaVuSans-63" transform="translate(126.505859 0)"/>
     <use xlink:href="#DejaVuSans-6f" transform="translate(181.486328 0)"/>
     <use xlink:href="#DejaVuSans-6d" transform="translate(242.667969 0)"/>
     <use xlink:href="#DejaVuSans-6d" transform="translate(340.080078 0)"/>
     <use xlink:href="#DejaVuSans-65" transform="translate(437.492188 0)"/>
     <use xlink:href="#DejaVuSans-6e" transform="translate(499.015625 0)"/>
     <use xlink:href="#DejaVuSans-64" transform="translate(562.394531 0)"/>
     <use xlink:href="#DejaVuSans-61" transform="translate(625.871094 0)"/>
     <use xlink:href="#DejaVuSans-74" transform="translate(687.150391 0)"/>
     <use xlink:href="#DejaVuSans-69" transform="translate(726.359375 0)"/>
     <use xlink:href="#DejaVuSans-6f" transform="translate(754.142578 0)"/>
     <use xlink:href="#DejaVuSans-6e" transform="translate(815.324219 0)"/>
     <use xlink:href="#DejaVuSans-73" transform="translate(878.703125 0)"/>
    </g>
   </g>
   <g id="text_21">
    <!-- See Explanation -->
    <g style="fill: #1f2a33" transform="translate(384.971016 415.019062) scale(0.15 -0.15)">
     <defs>
      <path id="DejaVuSans-45" d="M 628 4666 
L 3578 4666 
L 3578 4134 
L 1259 4134 
L 1259 2753 
L 3481 2753 
L 3481 2222 
L 1259 2222 
L 1259 531 
L 3634 531 
L 3634 0 
L 628 0 
L 628 4666 
z
" transform="scale(0.015625)"/>
      <path id="DejaVuSans-70" d="M 1159 525 
L 1159 -1331 
L 581 -1331 
L 581 3500 
L 1159 3500 
L 1159 2969 
Q 1341 3281 1617 3432 
Q 1894 3584 2278 3584 
Q 2916 3584 3314 3078 
Q 3713 2572 3713 1747 
Q 3713 922 3314 415 
Q 2916 -91 2278 -91 
Q 1894 -91 1617 61 
Q 1341 213 1159 525 
z
M 3116 1747 
Q 3116 2381 2855 2742 
Q 2594 3103 2138 3103 
Q 1681 3103 1420 2742 
Q 1159 2381 1159 1747 
Q 1159 1113 1420 752 
Q 1681 391 2138 391 
Q 2594 391 2855 752 
Q 3116 1113 3116 1747 
z
" transform="scale(0.015625)"/>
     </defs>
     <use xlink:href="#DejaVuSans-53"/>
     <use xlink:href="#DejaVuSans-65" transform="translate(63.476562 0)"/>
     <use xlink:href="#DejaVuSans-65" transform="translate(125 0)"/>
     <use xlink:href="#DejaVuSans-20" transform="translate(186.523438 0)"/>
     <use xlink:href="#DejaVuSans-45" transform="translate(218.310547 0)"/>
     <use xlink:href="#DejaVuSans-78" transform="translate(281.494141 0)"/>
     <use xlink:href="#DejaVuSans-70" transform="translate(340.673828 0)"/>
     <use xlink:href="#DejaVuSans-6c" transform="translate(404.150391 0)"/>
     <use xlink:href="#DejaVuSans-61" transform="translate(431.933594 0)"/>
     <use xlink:href="#DejaVuSans-6e" transform="translate(493.212891 0)"/>
     <use xlink:href="#DejaVuSans-61" transform="translate(556.591797 0)"/>
     <use xlink:href="#DejaVuSans-74" transform="translate(617.871094 0)"/>
     <use xlink:href="#DejaVuSans-69" transform="translate(657.080078 0)"/>
     <use xlink:href="#DejaVuSans-6f" transform="translate(684.863281 0)"/>
     <use xlink:href="#DejaVuSans-6e" transform="translate(746.044922 0)"/>
    </g>
   </g>
   <g id="text_22">
    <!-- Discover -->
    <g style="fill: #1f2a33" transform="translate(413.064375 483.180703) scale(0.15 -0.15)">
     <use xlink:href="#DejaVuSans-44"/>
     <use xlink:href="#DejaVuSans-69" transform="translate(77.001953 0)"/>
     <use xlink:href="#DejaVuSans-73" transform="translate(104.785156 0)"/>
     <use xlink:href="#DejaVuSans-63" transform="translate(156.884766 0)"/>
     <use xlink:href="#DejaVuSans-6f" transform="translate(211.865234 0)"/>
     <use xlink:href="#DejaVuSans-76" transform="translate(273.046875 0)"/>
     <use xlink:href="#DejaVuSans-65" transform="translate(332.226562 0)"/>
     <use xlink:href="#DejaVuSans-72" transform="translate(393.75 0)"/>
    </g>
    <!-- Similar Books -->
    <g style="fill: #1f2a33" transform="translate(394.725703 499.977422) scale(0.15 -0.15)">
     <use xlink:href="#DejaVuSans-53"/>
     <use xlink:href="#DejaVuSans-69" transform="translate(63.476562 0)"/>
     <use xlink:href="#DejaVuSans-6d" transform="translate(91.259766 0)"/>
     <use xlink:href="#DejaVuSans-69" transform="translate(188.671875 0)"/>
     <use xlink:href="#DejaVuSans-6c" transform="translate(216.455078 0)"/>
     <use xlink:href="#DejaVuSans-61" transform="translate(244.238281 0)"/>
     <use xlink:href="#DejaVuSans-72" transform="translate(305.517578 0)"/>
     <use xlink:href="#DejaVuSans-20" transform="translate(346.630859 0)"/>
     <use xlink:href="#DejaVuSans-42" transform="translate(378.417969 0)"/>
     <use xlink:href="#DejaVuSans-6f" transform="translate(447.021484 0)"/>
     <use xlink:href="#DejaVuSans-6f" transform="translate(508.203125 0)"/>
     <use xlink:href="#DejaVuSans-6b" transform="translate(569.384766 0)"/>
     <use xlink:href="#DejaVuSans-73" transform="translate(627.294922 0)"/>
    </g>
   </g>
   <g id="text_23">
    <!-- Manage Profile -->
    <g style="fill: #1f2a33" transform="translate(390.187031 564.659062) scale(0.15 -0.15)">
     <defs>
      <path id="DejaVuSans-4d" d="M 628 4666 
L 1569 4666 
L 2759 1491 
L 3956 4666 
L 4897 4666 
L 4897 0 
L 4281 0 
L 4281 4097 
L 3078 897 
L 2444 897 
L 1241 4097 
L 1241 0 
L 628 0 
L 628 4666 
z
" transform="scale(0.015625)"/>
      <path id="DejaVuSans-50" d="M 1259 4147 
L 1259 2394 
L 2053 2394 
Q 2494 2394 2734 2622 
Q 2975 2850 2975 3272 
Q 2975 3691 2734 3919 
Q 2494 4147 2053 4147 
L 1259 4147 
z
M 628 4666 
L 2053 4666 
Q 2838 4666 3239 4311 
Q 3641 3956 3641 3272 
Q 3641 2581 3239 2228 
Q 2838 1875 2053 1875 
L 1259 1875 
L 1259 0 
L 628 0 
L 628 4666 
z
" transform="scale(0.015625)"/>
      <path id="DejaVuSans-66" d="M 2375 4863 
L 2375 4384 
L 1825 4384 
Q 1516 4384 1395 4259 
Q 1275 4134 1275 3809 
L 1275 3500 
L 2222 3500 
L 2222 3053 
L 1275 3053 
L 1275 0 
L 697 0 
L 697 3053 
L 147 3053 
L 147 3500 
L 697 3500 
L 697 3744 
Q 697 4328 969 4595 
Q 1241 4863 1831 4863 
L 2375 4863 
z
" transform="scale(0.015625)"/>
     </defs>
     <use xlink:href="#DejaVuSans-4d"/>
     <use xlink:href="#DejaVuSans-61" transform="translate(86.279297 0)"/>
     <use xlink:href="#DejaVuSans-6e" transform="translate(147.558594 0)"/>
     <use xlink:href="#DejaVuSans-61" transform="translate(210.9375 0)"/>
     <use xlink:href="#DejaVuSans-67" transform="translate(272.216797 0)"/>
     <use xlink:href="#DejaVuSans-65" transform="translate(335.693359 0)"/>
     <use xlink:href="#DejaVuSans-20" transform="translate(397.216797 0)"/>
     <use xlink:href="#DejaVuSans-50" transform="translate(429.003906 0)"/>
     <use xlink:href="#DejaVuSans-72" transform="translate(487.556641 0)"/>
     <use xlink:href="#DejaVuSans-6f" transform="translate(526.419922 0)"/>
     <use xlink:href="#DejaVuSans-66" transform="translate(587.601562 0)"/>
     <use xlink:href="#DejaVuSans-69" transform="translate(622.806641 0)"/>
     <use xlink:href="#DejaVuSans-6c" transform="translate(650.589844 0)"/>
     <use xlink:href="#DejaVuSans-65" transform="translate(678.373047 0)"/>
    </g>
   </g>
   <g id="text_24">
    <!-- Add Book -->
    <g style="fill: #1f2a33" transform="translate(566.707734 129.659062) scale(0.15 -0.15)">
     <defs>
      <path id="DejaVuSans-41" d="M 2188 4044 
L 1331 1722 
L 3047 1722 
L 2188 4044 
z
M 1831 4666 
L 2547 4666 
L 4325 0 
L 3669 0 
L 3244 1197 
L 1141 1197 
L 716 0 
L 50 0 
L 1831 4666 
z
" transform="scale(0.015625)"/>
     </defs>
     <use xlink:href="#DejaVuSans-41"/>
     <use xlink:href="#DejaVuSans-64" transform="translate(66.658203 0)"/>
     <use xlink:href="#DejaVuSans-64" transform="translate(130.134766 0)"/>
     <use xlink:href="#DejaVuSans-20" transform="translate(193.611328 0)"/>
     <use xlink:href="#DejaVuSans-42" transform="translate(225.398438 0)"/>
     <use xlink:href="#DejaVuSans-6f" transform="translate(294.001953 0)"/>
     <use xlink:href="#DejaVuSans-6f" transform="translate(355.183594 0)"/>
     <use xlink:href="#DejaVuSans-6b" transform="translate(416.365234 0)"/>
    </g>
   </g>
   <g id="text_25">
    <!-- Edit Book -->
    <g style="fill: #1f2a33" transform="translate(566.705391 206.219062) scale(0.15 -0.15)">
     <use xlink:href="#DejaVuSans-45"/>
     <use xlink:href="#DejaVuSans-64" transform="translate(63.183594 0)"/>
     <use xlink:href="#DejaVuSans-69" transform="translate(126.660156 0)"/>
     <use xlink:href="#DejaVuSans-74" transform="translate(154.443359 0)"/>
     <use xlink:href="#DejaVuSans-20" transform="translate(193.652344 0)"/>
     <use xlink:href="#DejaVuSans-42" transform="translate(225.439453 0)"/>
     <use xlink:href="#DejaVuSans-6f" transform="translate(294.042969 0)"/>
     <use xlink:href="#DejaVuSans-6f" transform="translate(355.224609 0)"/>
     <use xlink:href="#DejaVuSans-6b" transform="translate(416.40625 0)"/>
    </g>
   </g>
   <g id="text_26">
    <!-- Delete Book -->
    <g style="fill: #1f2a33" transform="translate(556.58625 282.779062) scale(0.15 -0.15)">
     <use xlink:href="#DejaVuSans-44"/>
     <use xlink:href="#DejaVuSans-65" transform="translate(77.001953 0)"/>
     <use xlink:href="#DejaVuSans-6c" transform="translate(138.525391 0)"/>
     <use xlink:href="#DejaVuSans-65" transform="translate(166.308594 0)"/>
     <use xlink:href="#DejaVuSans-74" transform="translate(227.832031 0)"/>
     <use xlink:href="#DejaVuSans-65" transform="translate(267.041016 0)"/>
     <use xlink:href="#DejaVuSans-20" transform="translate(328.564453 0)"/>
     <use xlink:href="#DejaVuSans-42" transform="translate(360.351562 0)"/>
     <use xlink:href="#DejaVuSans-6f" transform="translate(428.955078 0)"/>
     <use xlink:href="#DejaVuSans-6f" transform="translate(490.136719 0)"/>
     <use xlink:href="#DejaVuSans-6b" transform="translate(551.318359 0)"/>
    </g>
   </g>
   <g id="text_27">
    <!-- Manage Catalogue -->
    <g style="fill: #1f2a33" transform="translate(685.052344 237.539062) scale(0.15 -0.15)">
     <use xlink:href="#DejaVuSans-4d"/>
     <use xlink:href="#DejaVuSans-61" transform="translate(86.279297 0)"/>
     <use xlink:href="#DejaVuSans-6e" transform="translate(147.558594 0)"/>
     <use xlink:href="#DejaVuSans-61" transform="translate(210.9375 0)"/>
     <use xlink:href="#DejaVuSans-67" transform="translate(272.216797 0)"/>
     <use xlink:href="#DejaVuSans-65" transform="translate(335.693359 0)"/>
     <use xlink:href="#DejaVuSans-20" transform="translate(397.216797 0)"/>
     <use xlink:href="#DejaVuSans-43" transform="translate(429.003906 0)"/>
     <use xlink:href="#DejaVuSans-61" transform="translate(498.828125 0)"/>
     <use xlink:href="#DejaVuSans-74" transform="translate(560.107422 0)"/>
     <use xlink:href="#DejaVuSans-61" transform="translate(599.316406 0)"/>
     <use xlink:href="#DejaVuSans-6c" transform="translate(660.595703 0)"/>
     <use xlink:href="#DejaVuSans-6f" transform="translate(688.378906 0)"/>
     <use xlink:href="#DejaVuSans-67" transform="translate(749.560547 0)"/>
     <use xlink:href="#DejaVuSans-75" transform="translate(813.037109 0)"/>
     <use xlink:href="#DejaVuSans-65" transform="translate(876.416016 0)"/>
    </g>
   </g>
   <g id="text_28">
    <!-- View Analytics -->
    <g style="fill: #1f2a33" transform="translate(701.165625 435.899062) scale(0.15 -0.15)">
     <use xlink:href="#DejaVuSans-56"/>
     <use xlink:href="#DejaVuSans-69" transform="translate(66.158203 0)"/>
     <use xlink:href="#DejaVuSans-65" transform="translate(93.941406 0)"/>
     <use xlink:href="#DejaVuSans-77" transform="translate(155.464844 0)"/>
     <use xlink:href="#DejaVuSans-20" transform="translate(237.251953 0)"/>
     <use xlink:href="#DejaVuSans-41" transform="translate(269.039062 0)"/>
     <use xlink:href="#DejaVuSans-6e" transform="translate(337.447266 0)"/>
     <use xlink:href="#DejaVuSans-61" transform="translate(400.826172 0)"/>
     <use xlink:href="#DejaVuSans-6c" transform="translate(462.105469 0)"/>
     <use xlink:href="#DejaVuSans-79" transform="translate(489.888672 0)"/>
     <use xlink:href="#DejaVuSans-74" transform="translate(549.068359 0)"/>
     <use xlink:href="#DejaVuSans-69" transform="translate(588.277344 0)"/>
     <use xlink:href="#DejaVuSans-63" transform="translate(616.060547 0)"/>
     <use xlink:href="#DejaVuSans-73" transform="translate(671.041016 0)"/>
    </g>
   </g>
   <g id="text_29">
    <g id="patch_36">
     <path d="M 350.075625 281.441828 
L 409.044375 281.441828 
Q 410.669375 281.441828 410.669375 279.816828 
L 410.669375 267.719172 
Q 410.669375 266.094172 409.044375 266.094172 
L 350.075625 266.094172 
Q 348.450625 266.094172 348.450625 267.719172 
L 348.450625 279.816828 
Q 348.450625 281.441828 350.075625 281.441828 
z
" style="fill: #ffffff"/>
    </g>
    <!-- «extend» -->
    <g style="fill: #7c2d2d" transform="translate(350.075625 277.217219) scale(0.125 -0.125)">
     <defs>
      <path id="DejaVuSans-Oblique-78" d="M 3841 3500 
L 2234 1784 
L 3219 0 
L 2559 0 
L 1819 1388 
L 531 0 
L -166 0 
L 1556 1844 
L 641 3500 
L 1300 3500 
L 1972 2234 
L 3144 3500 
L 3841 3500 
z
" transform="scale(0.015625)"/>
      <path id="DejaVuSans-Oblique-64" d="M 2675 525 
Q 2444 222 2128 65 
Q 1813 -91 1428 -91 
Q 903 -91 598 267 
Q 294 625 294 1247 
Q 294 1766 478 2236 
Q 663 2706 1013 3078 
Q 1244 3325 1534 3454 
Q 1825 3584 2144 3584 
Q 2481 3584 2739 3421 
Q 2997 3259 3138 2956 
L 3513 4863 
L 4091 4863 
L 3144 0 
L 2566 0 
L 2675 525 
z
M 891 1350 
Q 891 897 1095 644 
Q 1300 391 1663 391 
Q 1931 391 2161 520 
Q 2391 650 2566 903 
Q 2750 1166 2856 1509 
Q 2963 1853 2963 2188 
Q 2963 2622 2758 2865 
Q 2553 3109 2194 3109 
Q 1922 3109 1687 2981 
Q 1453 2853 1288 2613 
Q 1106 2353 998 2009 
Q 891 1666 891 1350 
z
" transform="scale(0.015625)"/>
     </defs>
     <use xlink:href="#DejaVuSans-Oblique-ab"/>
     <use xlink:href="#DejaVuSans-Oblique-65" transform="translate(61.71875 0)"/>
     <use xlink:href="#DejaVuSans-Oblique-78" transform="translate(123.242188 0)"/>
     <use xlink:href="#DejaVuSans-Oblique-74" transform="translate(182.421875 0)"/>
     <use xlink:href="#DejaVuSans-Oblique-65" transform="translate(221.630859 0)"/>
     <use xlink:href="#DejaVuSans-Oblique-6e" transform="translate(283.154297 0)"/>
     <use xlink:href="#DejaVuSans-Oblique-64" transform="translate(346.533203 0)"/>
     <use xlink:href="#DejaVuSans-Oblique-bb" transform="translate(410.009766 0)"/>
    </g>
   </g>
   <g id="text_30">
    <g id="patch_37">
     <path d="M 137.795625 317.633828 
L 196.764375 317.633828 
Q 198.389375 317.633828 198.389375 316.008828 
L 198.389375 303.911172 
Q 198.389375 302.286172 196.764375 302.286172 
L 137.795625 302.286172 
Q 136.170625 302.286172 136.170625 303.911172 
L 136.170625 316.008828 
Q 136.170625 317.633828 137.795625 317.633828 
z
" style="fill: #ffffff"/>
    </g>
    <!-- «extend» -->
    <g style="fill: #7c2d2d" transform="translate(137.795625 313.409219) scale(0.125 -0.125)">
     <use xlink:href="#DejaVuSans-Oblique-ab"/>
     <use xlink:href="#DejaVuSans-Oblique-65" transform="translate(61.71875 0)"/>
     <use xlink:href="#DejaVuSans-Oblique-78" transform="translate(123.242188 0)"/>
     <use xlink:href="#DejaVuSans-Oblique-74" transform="translate(182.421875 0)"/>
     <use xlink:href="#DejaVuSans-Oblique-65" transform="translate(221.630859 0)"/>
     <use xlink:href="#DejaVuSans-Oblique-6e" transform="translate(283.154297 0)"/>
     <use xlink:href="#DejaVuSans-Oblique-64" transform="translate(346.533203 0)"/>
     <use xlink:href="#DejaVuSans-Oblique-bb" transform="translate(410.009766 0)"/>
    </g>
   </g>
   <g id="text_31">
    <g id="patch_38">
     <path d="M 506.675625 227.153828 
L 565.644375 227.153828 
Q 567.269375 227.153828 567.269375 225.528828 
L 567.269375 213.431172 
Q 567.269375 211.806172 565.644375 211.806172 
L 506.675625 211.806172 
Q 505.050625 211.806172 505.050625 213.431172 
L 505.050625 225.528828 
Q 505.050625 227.153828 506.675625 227.153828 
z
" style="fill: #ffffff"/>
    </g>
    <!-- «extend» -->
    <g style="fill: #7c2d2d" transform="translate(506.675625 222.929219) scale(0.125 -0.125)">
     <use xlink:href="#DejaVuSans-Oblique-ab"/>
     <use xlink:href="#DejaVuSans-Oblique-65" transform="translate(61.71875 0)"/>
     <use xlink:href="#DejaVuSans-Oblique-78" transform="translate(123.242188 0)"/>
     <use xlink:href="#DejaVuSans-Oblique-74" transform="translate(182.421875 0)"/>
     <use xlink:href="#DejaVuSans-Oblique-65" transform="translate(221.630859 0)"/>
     <use xlink:href="#DejaVuSans-Oblique-6e" transform="translate(283.154297 0)"/>
     <use xlink:href="#DejaVuSans-Oblique-64" transform="translate(346.533203 0)"/>
     <use xlink:href="#DejaVuSans-Oblique-bb" transform="translate(410.009766 0)"/>
    </g>
   </g>
   <g id="text_32">
    <g id="patch_39">
     <path d="M 523.200625 380.273828 
L 583.919375 380.273828 
Q 585.544375 380.273828 585.544375 378.648828 
L 585.544375 366.551172 
Q 585.544375 364.926172 583.919375 364.926172 
L 523.200625 364.926172 
Q 521.575625 364.926172 521.575625 366.551172 
L 521.575625 378.648828 
Q 521.575625 380.273828 523.200625 380.273828 
z
" style="fill: #ffffff"/>
    </g>
    <!-- «include» -->
    <g style="fill: #7c2d2d" transform="translate(523.200625 376.049219) scale(0.125 -0.125)">
     <defs>
      <path id="DejaVuSans-Oblique-63" d="M 3431 3366 
L 3316 2797 
Q 3109 2947 2876 3022 
Q 2644 3097 2394 3097 
Q 2119 3097 1870 3000 
Q 1622 2903 1453 2725 
Q 1184 2453 1037 2087 
Q 891 1722 891 1331 
Q 891 859 1127 628 
Q 1363 397 1844 397 
Q 2081 397 2348 469 
Q 2616 541 2906 684 
L 2797 116 
Q 2547 13 2283 -39 
Q 2019 -91 1741 -91 
Q 1044 -91 669 257 
Q 294 606 294 1253 
Q 294 1797 489 2255 
Q 684 2713 1069 3078 
Q 1331 3328 1684 3456 
Q 2038 3584 2456 3584 
Q 2700 3584 2940 3529 
Q 3181 3475 3431 3366 
z
" transform="scale(0.015625)"/>
      <path id="DejaVuSans-Oblique-75" d="M 428 1388 
L 838 3500 
L 1416 3500 
L 1006 1409 
Q 975 1256 961 1147 
Q 947 1038 947 966 
Q 947 700 1109 554 
Q 1272 409 1569 409 
Q 2031 409 2368 721 
Q 2706 1034 2809 1563 
L 3194 3500 
L 3769 3500 
L 3091 0 
L 2516 0 
L 2631 550 
Q 2388 244 2052 76 
Q 1716 -91 1338 -91 
Q 878 -91 622 161 
Q 366 413 366 863 
Q 366 956 381 1097 
Q 397 1238 428 1388 
z
" transform="scale(0.015625)"/>
     </defs>
     <use xlink:href="#DejaVuSans-Oblique-ab"/>
     <use xlink:href="#DejaVuSans-Oblique-69" transform="translate(61.71875 0)"/>
     <use xlink:href="#DejaVuSans-Oblique-6e" transform="translate(89.501953 0)"/>
     <use xlink:href="#DejaVuSans-Oblique-63" transform="translate(152.880859 0)"/>
     <use xlink:href="#DejaVuSans-Oblique-6c" transform="translate(207.861328 0)"/>
     <use xlink:href="#DejaVuSans-Oblique-75" transform="translate(235.644531 0)"/>
     <use xlink:href="#DejaVuSans-Oblique-64" transform="translate(299.023438 0)"/>
     <use xlink:href="#DejaVuSans-Oblique-65" transform="translate(362.5 0)"/>
     <use xlink:href="#DejaVuSans-Oblique-bb" transform="translate(424.023438 0)"/>
    </g>
   </g>
   <g id="text_33">
    <g id="patch_40">
     <path d="M 655.440625 174.953828 
L 716.159375 174.953828 
Q 717.784375 174.953828 717.784375 173.328828 
L 717.784375 161.231172 
Q 717.784375 159.606172 716.159375 159.606172 
L 655.440625 159.606172 
Q 653.815625 159.606172 653.815625 161.231172 
L 653.815625 173.328828 
Q 653.815625 174.953828 655.440625 174.953828 
z
" style="fill: #ffffff"/>
    </g>
    <!-- «include» -->
    <g style="fill: #7c2d2d" transform="translate(655.440625 170.729219) scale(0.125 -0.125)">
     <use xlink:href="#DejaVuSans-Oblique-ab"/>
     <use xlink:href="#DejaVuSans-Oblique-69" transform="translate(61.71875 0)"/>
     <use xlink:href="#DejaVuSans-Oblique-6e" transform="translate(89.501953 0)"/>
     <use xlink:href="#DejaVuSans-Oblique-63" transform="translate(152.880859 0)"/>
     <use xlink:href="#DejaVuSans-Oblique-6c" transform="translate(207.861328 0)"/>
     <use xlink:href="#DejaVuSans-Oblique-75" transform="translate(235.644531 0)"/>
     <use xlink:href="#DejaVuSans-Oblique-64" transform="translate(299.023438 0)"/>
     <use xlink:href="#DejaVuSans-Oblique-65" transform="translate(362.5 0)"/>
     <use xlink:href="#DejaVuSans-Oblique-bb" transform="translate(424.023438 0)"/>
    </g>
   </g>
   <g id="text_34">
    <g id="patch_41">
     <path d="M 651.960625 220.193828 
L 712.679375 220.193828 
Q 714.304375 220.193828 714.304375 218.568828 
L 714.304375 206.471172 
Q 714.304375 204.846172 712.679375 204.846172 
L 651.960625 204.846172 
Q 650.335625 204.846172 650.335625 206.471172 
L 650.335625 218.568828 
Q 650.335625 220.193828 651.960625 220.193828 
z
" style="fill: #ffffff"/>
    </g>
    <!-- «include» -->
    <g style="fill: #7c2d2d" transform="translate(651.960625 215.969219) scale(0.125 -0.125)">
     <use xlink:href="#DejaVuSans-Oblique-ab"/>
     <use xlink:href="#DejaVuSans-Oblique-69" transform="translate(61.71875 0)"/>
     <use xlink:href="#DejaVuSans-Oblique-6e" transform="translate(89.501953 0)"/>
     <use xlink:href="#DejaVuSans-Oblique-63" transform="translate(152.880859 0)"/>
     <use xlink:href="#DejaVuSans-Oblique-6c" transform="translate(207.861328 0)"/>
     <use xlink:href="#DejaVuSans-Oblique-75" transform="translate(235.644531 0)"/>
     <use xlink:href="#DejaVuSans-Oblique-64" transform="translate(299.023438 0)"/>
     <use xlink:href="#DejaVuSans-Oblique-65" transform="translate(362.5 0)"/>
     <use xlink:href="#DejaVuSans-Oblique-bb" transform="translate(424.023438 0)"/>
    </g>
   </g>
   <g id="text_35">
    <g id="patch_42">
     <path d="M 655.440625 275.873828 
L 716.159375 275.873828 
Q 717.784375 275.873828 717.784375 274.248828 
L 717.784375 262.151172 
Q 717.784375 260.526172 716.159375 260.526172 
L 655.440625 260.526172 
Q 653.815625 260.526172 653.815625 262.151172 
L 653.815625 274.248828 
Q 653.815625 275.873828 655.440625 275.873828 
z
" style="fill: #ffffff"/>
    </g>
    <!-- «include» -->
    <g style="fill: #7c2d2d" transform="translate(655.440625 271.649219) scale(0.125 -0.125)">
     <use xlink:href="#DejaVuSans-Oblique-ab"/>
     <use xlink:href="#DejaVuSans-Oblique-69" transform="translate(61.71875 0)"/>
     <use xlink:href="#DejaVuSans-Oblique-6e" transform="translate(89.501953 0)"/>
     <use xlink:href="#DejaVuSans-Oblique-63" transform="translate(152.880859 0)"/>
     <use xlink:href="#DejaVuSans-Oblique-6c" transform="translate(207.861328 0)"/>
     <use xlink:href="#DejaVuSans-Oblique-75" transform="translate(235.644531 0)"/>
     <use xlink:href="#DejaVuSans-Oblique-64" transform="translate(299.023438 0)"/>
     <use xlink:href="#DejaVuSans-Oblique-65" transform="translate(362.5 0)"/>
     <use xlink:href="#DejaVuSans-Oblique-bb" transform="translate(424.023438 0)"/>
    </g>
   </g>
  </g>
 </g>
 <defs>
  <clipPath id="p5f4a204b52">
   <rect x="7.2" y="7.2" width="988.32" height="626.4"/>
  </clipPath>
 </defs>
</svg>
